<svg width="474" height="222" viewBox="0 0 474 222" fill="none" xmlns="http://www.w3.org/2000/svg">
<g filter="url(#filter0_d_34_62)">
<path d="M126.688 60H115.887V28.8555H106.125V20.0234H136.422V28.8555H126.688V60ZM155.234 20.0234C158.862 20.0234 161.879 20.4701 164.285 21.3633C166.691 22.2383 168.496 23.5508 169.699 25.3008C170.921 27.0508 171.531 29.2292 171.531 31.8359C171.531 33.4583 171.258 34.9349 170.711 36.2656C170.164 37.5964 169.38 38.7904 168.359 39.8477C167.357 40.8867 166.154 41.7982 164.75 42.582L176.398 60H164.148L155.672 45.4531H152.938V60H142.137V20.0234H155.234ZM155.07 28.1992H152.938V37.332H154.961C156.62 37.332 157.978 36.9674 159.035 36.2383C160.092 35.5091 160.621 34.2057 160.621 32.3281C160.621 31.0339 160.184 30.0221 159.309 29.293C158.434 28.5638 157.021 28.1992 155.07 28.1992ZM217.441 39.957C217.441 43.0378 217.068 45.8451 216.32 48.3789C215.591 50.8945 214.443 53.0638 212.875 54.8867C211.307 56.7096 209.293 58.1133 206.832 59.0977C204.371 60.0638 201.427 60.5469 198 60.5469C194.646 60.5469 191.738 60.0638 189.277 59.0977C186.835 58.1133 184.82 56.7188 183.234 54.9141C181.648 53.0911 180.473 50.9128 179.707 48.3789C178.941 45.8451 178.559 43.0195 178.559 39.9023C178.559 35.7461 179.242 32.1367 180.609 29.0742C181.995 25.9935 184.128 23.6146 187.008 21.9375C189.888 20.2422 193.57 19.3945 198.055 19.3945C202.612 19.3945 206.312 20.2422 209.156 21.9375C212.018 23.6328 214.115 26.0208 215.445 29.1016C216.776 32.1823 217.441 35.8008 217.441 39.957ZM189.934 39.957C189.934 42.3633 190.207 44.4323 190.754 46.1641C191.301 47.8958 192.167 49.2266 193.352 50.1562C194.536 51.0859 196.086 51.5508 198 51.5508C199.987 51.5508 201.564 51.0859 202.73 50.1562C203.915 49.2266 204.763 47.8958 205.273 46.1641C205.802 44.4323 206.066 42.3633 206.066 39.957C206.066 36.3477 205.465 33.4948 204.262 31.3984C203.059 29.3021 200.99 28.2539 198.055 28.2539C196.104 28.2539 194.527 28.7279 193.324 29.6758C192.139 30.6237 191.273 31.9727 190.727 33.7227C190.198 35.4727 189.934 37.5508 189.934 39.957ZM238.496 20.0234C243.564 20.0234 247.355 21.1263 249.871 23.332C252.405 25.5378 253.672 28.6732 253.672 32.7383C253.672 34.5612 253.408 36.3112 252.879 37.9883C252.368 39.6654 251.521 41.1602 250.336 42.4727C249.169 43.7852 247.611 44.8242 245.66 45.5898C243.728 46.3555 241.34 46.7383 238.496 46.7383H235.461V60H224.66V20.0234H238.496ZM238.25 28.7461H235.461V37.9336H237.594C238.523 37.9336 239.389 37.7786 240.191 37.4688C240.993 37.1406 241.632 36.6211 242.105 35.9102C242.598 35.181 242.844 34.2148 242.844 33.0117C242.844 31.7539 242.47 30.7331 241.723 29.9492C240.975 29.1471 239.818 28.7461 238.25 28.7461Z" fill="#A31621"/>
<path d="M126.688 60V63H129.688V60H126.688ZM115.887 60H112.887V63H115.887V60ZM115.887 28.8555H118.887V25.8555H115.887V28.8555ZM106.125 28.8555H103.125V31.8555H106.125V28.8555ZM106.125 20.0234V17.0234H103.125V20.0234H106.125ZM136.422 20.0234H139.422V17.0234H136.422V20.0234ZM136.422 28.8555V31.8555H139.422V28.8555H136.422ZM126.688 28.8555V25.8555H123.688V28.8555H126.688ZM126.688 57H115.887V63H126.688V57ZM118.887 60V28.8555H112.887V60H118.887ZM115.887 25.8555H106.125V31.8555H115.887V25.8555ZM109.125 28.8555V20.0234H103.125V28.8555H109.125ZM106.125 23.0234H136.422V17.0234H106.125V23.0234ZM133.422 20.0234V28.8555H139.422V20.0234H133.422ZM136.422 25.8555H126.688V31.8555H136.422V25.8555ZM123.688 28.8555V60H129.688V28.8555H123.688ZM164.285 21.3633L163.241 24.1758L163.251 24.1792L163.26 24.1827L164.285 21.3633ZM169.699 25.3008L167.227 27.0004L167.233 27.0091L167.239 27.0177L169.699 25.3008ZM168.359 39.8477L166.201 37.7639L166.201 37.7645L168.359 39.8477ZM164.75 42.582L163.287 39.9628L160.449 41.5477L162.256 44.2497L164.75 42.582ZM176.398 60V63H182.014L178.892 58.3323L176.398 60ZM164.148 60L161.556 61.5104L162.424 63H164.148V60ZM155.672 45.4531L158.264 43.9427L157.396 42.4531H155.672V45.4531ZM152.938 45.4531V42.4531H149.938V45.4531H152.938ZM152.938 60V63H155.938V60H152.938ZM142.137 60H139.137V63H142.137V60ZM142.137 20.0234V17.0234H139.137V20.0234H142.137ZM152.938 28.1992V25.1992H149.938V28.1992H152.938ZM152.938 37.332H149.938V40.332H152.938V37.332ZM155.234 23.0234C158.641 23.0234 161.276 23.4463 163.241 24.1758L165.329 18.5508C162.482 17.4938 159.083 17.0234 155.234 17.0234V23.0234ZM163.26 24.1827C165.202 24.889 166.446 25.8636 167.227 27.0004L172.171 23.6012C170.547 21.2379 168.18 19.5876 165.31 18.5439L163.26 24.1827ZM167.239 27.0177C168.038 28.1618 168.531 29.7053 168.531 31.8359H174.531C174.531 28.753 173.804 25.9398 172.159 23.5838L167.239 27.0177ZM168.531 31.8359C168.531 33.1169 168.316 34.1997 167.936 35.1253L173.486 37.406C174.199 35.6701 174.531 33.7997 174.531 31.8359H168.531ZM167.936 35.1253C167.536 36.0978 166.964 36.9733 166.201 37.7639L170.518 41.9314C171.796 40.6074 172.792 39.0949 173.486 37.406L167.936 35.1253ZM166.201 37.7645C165.424 38.5692 164.463 39.3064 163.287 39.9628L166.213 45.2013C167.845 44.2899 169.289 43.2042 170.518 41.9308L166.201 37.7645ZM162.256 44.2497L173.905 61.6677L178.892 58.3323L167.244 40.9143L162.256 44.2497ZM176.398 57H164.148V63H176.398V57ZM166.74 58.4896L158.264 43.9427L153.08 46.9635L161.556 61.5104L166.74 58.4896ZM155.672 42.4531H152.938V48.4531H155.672V42.4531ZM149.938 45.4531V60H155.938V45.4531H149.938ZM152.938 57H142.137V63H152.938V57ZM145.137 60V20.0234H139.137V60H145.137ZM142.137 23.0234H155.234V17.0234H142.137V23.0234ZM155.07 25.1992H152.938V31.1992H155.07V25.1992ZM149.938 28.1992V37.332H155.938V28.1992H149.938ZM152.938 40.332H154.961V34.332H152.938V40.332ZM154.961 40.332C157.052 40.332 159.052 39.8707 160.738 38.7079L157.332 33.7686C156.903 34.0642 156.188 34.332 154.961 34.332V40.332ZM160.738 38.7079C162.938 37.1908 163.621 34.7076 163.621 32.3281H157.621C157.621 33.0026 157.524 33.3908 157.445 33.5863C157.379 33.7489 157.333 33.7682 157.332 33.7686L160.738 38.7079ZM163.621 32.3281C163.621 30.2797 162.886 28.3692 161.229 26.9883L157.388 31.5976C157.481 31.675 157.621 31.788 157.621 32.3281H163.621ZM161.229 26.9883C159.546 25.5858 157.267 25.1992 155.07 25.1992V31.1992C156.775 31.1992 157.321 31.5418 157.388 31.5976L161.229 26.9883ZM216.32 48.3789L213.443 47.5302L213.439 47.5437L216.32 48.3789ZM206.832 59.0977L207.928 61.8902L207.937 61.8867L207.946 61.8831L206.832 59.0977ZM189.277 59.0977L188.156 61.8802L188.168 61.8852L188.181 61.8902L189.277 59.0977ZM183.234 54.9141L180.971 56.8832L180.976 56.8888L180.981 56.8944L183.234 54.9141ZM180.609 29.0742L177.873 27.8438L177.87 27.8513L180.609 29.0742ZM187.008 21.9375L188.517 24.5301L188.53 24.5229L187.008 21.9375ZM209.156 21.9375L207.62 24.5144L207.627 24.5186L209.156 21.9375ZM215.445 29.1016L212.691 30.2912L215.445 29.1016ZM190.754 46.1641L187.893 47.0675L190.754 46.1641ZM202.73 50.1562L200.879 47.796L200.87 47.803L200.861 47.8101L202.73 50.1562ZM205.273 46.1641L202.404 45.2882L202.4 45.302L202.396 45.3159L205.273 46.1641ZM204.262 31.3984L201.66 32.8917L204.262 31.3984ZM193.324 29.6758L191.468 27.3193L191.459 27.3262L191.45 27.3332L193.324 29.6758ZM190.727 33.7227L187.863 32.8278L187.859 32.8415L187.855 32.8551L190.727 33.7227ZM214.441 39.957C214.441 42.7969 214.097 45.3132 213.443 47.5302L219.198 49.2276C220.039 46.3769 220.441 43.2786 220.441 39.957H214.441ZM213.439 47.5437C212.819 49.6839 211.864 51.4618 210.6 52.9306L215.15 56.8428C217.022 54.6658 218.364 52.1052 219.202 49.2141L213.439 47.5437ZM210.6 52.9306C209.378 54.3515 207.778 55.4883 205.718 56.3122L207.946 61.8831C210.808 60.7382 213.236 59.0678 215.15 56.8428L210.6 52.9306ZM205.736 56.3052C203.711 57.1002 201.158 57.5469 198 57.5469V63.5469C201.696 63.5469 205.032 63.0274 207.928 61.8902L205.736 56.3052ZM198 57.5469C194.924 57.5469 192.405 57.1028 190.374 56.3052L188.181 61.8902C191.071 63.0248 194.367 63.5469 198 63.5469V57.5469ZM190.399 56.3151C188.348 55.4888 186.735 54.3533 185.488 52.9337L180.981 56.8944C182.905 59.0842 185.321 60.7377 188.156 61.8802L190.399 56.3151ZM185.498 52.945C184.216 51.4715 183.234 49.6782 182.579 47.5112L176.835 49.2466C177.712 52.1473 179.081 54.7108 180.971 56.8832L185.498 52.945ZM182.579 47.5112C181.912 45.3035 181.559 42.7763 181.559 39.9023H175.559C175.559 43.2628 175.971 46.3866 176.835 49.2466L182.579 47.5112ZM181.559 39.9023C181.559 36.0695 182.189 32.8944 183.349 30.2972L177.87 27.8513C176.295 31.3791 175.559 35.4227 175.559 39.9023H181.559ZM183.345 30.3046C184.478 27.7865 186.186 25.8876 188.517 24.53L185.498 19.345C182.069 21.3416 179.512 24.2005 177.873 27.8438L183.345 30.3046ZM188.53 24.5229C190.817 23.1765 193.929 22.3945 198.055 22.3945V16.3945C193.212 16.3945 188.959 17.3079 185.486 19.3521L188.53 24.5229ZM198.055 22.3945C202.266 22.3945 205.384 23.1813 207.62 24.5143L210.692 19.3607C207.241 17.3031 202.958 16.3945 198.055 16.3945V22.3945ZM207.627 24.5186C209.939 25.888 211.609 27.7865 212.691 30.2912L218.199 27.9119C216.62 24.2552 214.097 21.3776 210.685 19.3564L207.627 24.5186ZM212.691 30.2912C213.826 32.9181 214.441 36.1152 214.441 39.957H220.441C220.441 35.4864 219.726 31.4465 218.199 27.9119L212.691 30.2912ZM186.934 39.957C186.934 42.5765 187.23 44.9661 187.893 47.0675L193.615 45.2607C193.184 43.8985 192.934 42.1501 192.934 39.957H186.934ZM187.893 47.0675C188.584 49.2549 189.749 51.1428 191.5 52.5165L195.203 47.796C194.584 47.3103 194.018 46.5368 193.615 45.2607L187.893 47.0675ZM191.5 52.5165C193.342 53.9618 195.599 54.5508 198 54.5508V48.5508C196.573 48.5508 195.731 48.2101 195.203 47.796L191.5 52.5165ZM198 54.5508C200.441 54.5508 202.749 53.9774 204.6 52.5024L200.861 47.8101C200.378 48.1945 199.533 48.5508 198 48.5508V54.5508ZM204.582 52.5165C206.349 51.1302 207.5 49.2208 208.151 47.0122L202.396 45.3159C202.026 46.5709 201.482 47.323 200.879 47.796L204.582 52.5165ZM208.143 47.04C208.781 44.9485 209.066 42.5689 209.066 39.957H203.066C203.066 42.1577 202.823 43.916 202.404 45.2882L208.143 47.04ZM209.066 39.957C209.066 36.0632 208.425 32.6264 206.864 29.9052L201.66 32.8917C202.504 34.3632 203.066 36.6321 203.066 39.957H209.066ZM206.864 29.9052C205.003 26.6634 201.793 25.2539 198.055 25.2539V31.2539C200.186 31.2539 201.114 31.9408 201.66 32.8917L206.864 29.9052ZM198.055 25.2539C195.618 25.2539 193.33 25.852 191.468 27.3193L195.181 32.0323C195.725 31.6038 196.591 31.2539 198.055 31.2539V25.2539ZM191.45 27.3332C189.709 28.7261 188.551 30.6279 187.863 32.8278L193.59 34.6175C193.996 33.3174 194.57 32.5213 195.198 32.0184L191.45 27.3332ZM187.855 32.8551C187.219 34.9592 186.934 37.344 186.934 39.957H192.934C192.934 37.7576 193.177 35.9861 193.598 34.5902L187.855 32.8551ZM249.871 23.332L247.893 25.5877L247.901 25.5948L249.871 23.332ZM252.879 37.9883L250.018 37.0864L250.013 37.1006L250.009 37.1148L252.879 37.9883ZM250.336 42.4727L248.109 40.4623L248.101 40.4709L248.094 40.4796L250.336 42.4727ZM245.66 45.5898L244.564 42.7973L244.555 42.8008L245.66 45.5898ZM235.461 46.7383V43.7383H232.461V46.7383H235.461ZM235.461 60V63H238.461V60H235.461ZM224.66 60H221.66V63H224.66V60ZM224.66 20.0234V17.0234H221.66V20.0234H224.66ZM235.461 28.7461V25.7461H232.461V28.7461H235.461ZM235.461 37.9336H232.461V40.9336H235.461V37.9336ZM240.191 37.4688L241.273 40.2671L241.3 40.2565L241.327 40.2454L240.191 37.4688ZM242.105 35.9102L239.619 34.2317L239.614 34.2389L239.609 34.2461L242.105 35.9102ZM241.723 29.9492L239.528 31.9944L239.54 32.007L239.551 32.0194L241.723 29.9492ZM238.496 23.0234C243.198 23.0234 246.146 24.0561 247.893 25.5877L251.849 21.0763C248.565 18.1966 243.93 17.0234 238.496 17.0234V23.0234ZM247.901 25.5948C249.644 27.1119 250.672 29.3419 250.672 32.7383H256.672C256.672 28.0045 255.166 23.9636 251.841 21.0693L247.901 25.5948ZM250.672 32.7383C250.672 34.2666 250.451 35.7117 250.018 37.0864L255.74 38.8902C256.364 36.9107 256.672 34.8558 256.672 32.7383H250.672ZM250.009 37.1148C249.628 38.3665 249.001 39.474 248.109 40.4623L252.563 44.483C254.04 42.8463 255.109 40.9642 255.749 38.8618L250.009 37.1148ZM248.094 40.4796C247.296 41.3771 246.159 42.1711 244.564 42.7973L246.756 48.3824C249.062 47.4773 251.043 46.1932 252.578 44.4657L248.094 40.4796ZM244.555 42.8008C243.078 43.386 241.092 43.7383 238.496 43.7383V49.7383C241.588 49.7383 244.378 49.3249 246.765 48.3789L244.555 42.8008ZM238.496 43.7383H235.461V49.7383H238.496V43.7383ZM232.461 46.7383V60H238.461V46.7383H232.461ZM235.461 57H224.66V63H235.461V57ZM227.66 60V20.0234H221.66V60H227.66ZM224.66 23.0234H238.496V17.0234H224.66V23.0234ZM238.25 25.7461H235.461V31.7461H238.25V25.7461ZM232.461 28.7461V37.9336H238.461V28.7461H232.461ZM235.461 40.9336H237.594V34.9336H235.461V40.9336ZM237.594 40.9336C238.863 40.9336 240.099 40.7208 241.273 40.2671L239.11 34.6704C238.68 34.8365 238.184 34.9336 237.594 34.9336V40.9336ZM241.327 40.2454C242.675 39.6939 243.79 38.791 244.602 37.5743L239.609 34.2461C239.473 34.4512 239.312 34.5873 239.056 34.6921L241.327 40.2454ZM244.592 37.5886C245.521 36.2119 245.844 34.5991 245.844 33.0117H239.844C239.844 33.8305 239.674 34.1501 239.619 34.2317L244.592 37.5886ZM245.844 33.0117C245.844 31.1165 245.259 29.3105 243.894 27.879L239.551 32.0194C239.681 32.1557 239.844 32.3913 239.844 33.0117H245.844ZM243.917 27.904C242.395 26.2697 240.286 25.7461 238.25 25.7461V31.7461C238.788 31.7461 239.123 31.8162 239.312 31.8816C239.483 31.9409 239.526 31.9919 239.528 31.9944L243.917 27.904Z" fill="white"/>
</g>
<g filter="url(#filter1_d_34_62)">
<path d="M224.594 120.125C224.594 122.604 223.969 124.958 222.719 127.188C221.469 129.396 219.521 131.188 216.875 132.562C214.25 133.938 210.854 134.625 206.688 134.625C204.604 134.625 202.771 134.531 201.188 134.344C199.625 134.156 198.167 133.854 196.812 133.438C195.458 133 194.052 132.438 192.594 131.75V120.75C195.073 122 197.573 122.958 200.094 123.625C202.615 124.271 204.896 124.594 206.938 124.594C208.167 124.594 209.167 124.448 209.938 124.156C210.729 123.865 211.312 123.469 211.688 122.969C212.062 122.448 212.25 121.854 212.25 121.188C212.25 120.396 211.969 119.729 211.406 119.188C210.865 118.625 209.99 118.042 208.781 117.438C207.573 116.833 205.979 116.083 204 115.188C202.312 114.396 200.781 113.583 199.406 112.75C198.052 111.917 196.885 110.969 195.906 109.906C194.948 108.823 194.208 107.562 193.688 106.125C193.167 104.688 192.906 102.99 192.906 101.031C192.906 98.0938 193.625 95.6354 195.062 93.6562C196.521 91.6562 198.542 90.1562 201.125 89.1562C203.729 88.1562 206.729 87.6562 210.125 87.6562C213.104 87.6562 215.781 87.9896 218.156 88.6562C220.552 89.3229 222.698 90.0833 224.594 90.9375L220.812 100.469C218.854 99.5729 216.927 98.8646 215.031 98.3438C213.135 97.8021 211.375 97.5312 209.75 97.5312C208.688 97.5312 207.812 97.6667 207.125 97.9375C206.458 98.1875 205.958 98.5312 205.625 98.9688C205.312 99.4062 205.156 99.9062 205.156 100.469C205.156 101.177 205.427 101.812 205.969 102.375C206.531 102.938 207.458 103.552 208.75 104.219C210.062 104.865 211.844 105.708 214.094 106.75C216.323 107.75 218.219 108.833 219.781 110C221.344 111.146 222.531 112.531 223.344 114.156C224.177 115.76 224.594 117.75 224.594 120.125ZM233.375 134V118.969L230.188 120.75L225.75 113L233.375 108.469V88.3125H245.719V100.844L252.312 96.75L256.938 104.375L245.719 111.344V124.031H263.312V134H233.375ZM313.406 111.094C313.406 114.615 312.979 117.823 312.125 120.719C311.292 123.594 309.979 126.073 308.188 128.156C306.396 130.24 304.094 131.844 301.281 132.969C298.469 134.073 295.104 134.625 291.188 134.625C287.354 134.625 284.031 134.073 281.219 132.969C278.427 131.844 276.125 130.25 274.312 128.188C272.5 126.104 271.156 123.615 270.281 120.719C269.406 117.823 268.969 114.594 268.969 111.031C268.969 106.281 269.75 102.156 271.312 98.6562C272.896 95.1354 275.333 92.4167 278.625 90.5C281.917 88.5625 286.125 87.5938 291.25 87.5938C296.458 87.5938 300.688 88.5625 303.938 90.5C307.208 92.4375 309.604 95.1667 311.125 98.6875C312.646 102.208 313.406 106.344 313.406 111.094ZM281.969 111.094C281.969 113.844 282.281 116.208 282.906 118.188C283.531 120.167 284.521 121.688 285.875 122.75C287.229 123.812 289 124.344 291.188 124.344C293.458 124.344 295.26 123.812 296.594 122.75C297.948 121.688 298.917 120.167 299.5 118.188C300.104 116.208 300.406 113.844 300.406 111.094C300.406 106.969 299.719 103.708 298.344 101.312C296.969 98.9167 294.604 97.7188 291.25 97.7188C289.021 97.7188 287.219 98.2604 285.844 99.3438C284.49 100.427 283.5 101.969 282.875 103.969C282.271 105.969 281.969 108.344 281.969 111.094ZM306.469 74.6562V75.3125C305.719 75.9167 304.76 76.6562 303.594 77.5312C302.427 78.3854 301.188 79.2812 299.875 80.2188C298.583 81.1354 297.323 82.0104 296.094 82.8438C294.885 83.6771 293.844 84.3646 292.969 84.9062H284.844V84C285.573 83.2083 286.448 82.2708 287.469 81.1875C288.49 80.0833 289.51 78.9583 290.531 77.8125C291.552 76.6667 292.406 75.6146 293.094 74.6562H306.469ZM382.25 88.3125L371 134H356.406L352.031 114.094C351.948 113.719 351.812 113.083 351.625 112.188C351.458 111.292 351.26 110.271 351.031 109.125C350.823 107.979 350.625 106.854 350.438 105.75C350.271 104.625 350.146 103.677 350.062 102.906C349.979 103.677 349.844 104.625 349.656 105.75C349.469 106.854 349.26 107.979 349.031 109.125C348.823 110.271 348.615 111.292 348.406 112.188C348.219 113.083 348.083 113.719 348 114.094L343.594 134H329L317.688 88.3125H329.594L334.562 111.219C334.688 111.781 334.854 112.583 335.062 113.625C335.292 114.646 335.521 115.771 335.75 117C336 118.208 336.229 119.375 336.438 120.5C336.646 121.625 336.792 122.562 336.875 123.312C337.042 122.021 337.26 120.552 337.531 118.906C337.823 117.26 338.135 115.594 338.469 113.906C338.823 112.198 339.156 110.615 339.469 109.156C339.781 107.698 340.052 106.51 340.281 105.594L344.312 88.3125H355.75L359.656 105.594C359.865 106.49 360.125 107.677 360.438 109.156C360.771 110.615 361.104 112.198 361.438 113.906C361.792 115.615 362.115 117.302 362.406 118.969C362.698 120.615 362.917 122.062 363.062 123.312C363.188 122.271 363.396 120.958 363.688 119.375C363.979 117.771 364.271 116.219 364.562 114.719C364.875 113.198 365.115 112.052 365.281 111.281L370.344 88.3125H382.25Z" fill="#A31621"/>
<path d="M222.719 127.188L225.33 128.665L225.335 128.655L222.719 127.188ZM216.875 132.562L215.492 129.9L215.483 129.905L216.875 132.562ZM201.188 134.344L200.83 137.322L200.835 137.323L201.188 134.344ZM196.812 133.438L195.89 136.292L195.91 136.299L195.93 136.305L196.812 133.438ZM192.594 131.75H189.594V133.652L191.314 134.464L192.594 131.75ZM192.594 120.75L193.944 118.071L189.594 115.878V120.75H192.594ZM200.094 123.625L199.327 126.525L199.338 126.528L199.349 126.531L200.094 123.625ZM209.938 124.156L208.9 121.341L208.888 121.346L208.876 121.35L209.938 124.156ZM211.688 122.969L214.088 124.769L214.105 124.745L214.122 124.722L211.688 122.969ZM211.406 119.188L209.245 121.268L209.285 121.309L209.325 121.348L211.406 119.188ZM208.781 117.438L207.44 120.121L208.781 117.438ZM204 115.188L202.726 117.903L202.744 117.912L202.763 117.921L204 115.188ZM199.406 112.75L197.834 115.305L197.843 115.31L197.851 115.316L199.406 112.75ZM195.906 109.906L193.659 111.894L193.679 111.917L193.7 111.939L195.906 109.906ZM195.062 93.6562L192.638 91.8887L192.635 91.8933L195.062 93.6562ZM201.125 89.1562L200.05 86.3556L200.042 86.3585L201.125 89.1562ZM218.156 88.6562L217.345 91.5446L217.352 91.5464L218.156 88.6562ZM224.594 90.9375L227.382 92.0438L228.439 89.3797L225.826 88.2023L224.594 90.9375ZM220.812 100.469L219.565 103.197L222.436 104.511L223.601 101.575L220.812 100.469ZM215.031 98.3438L214.207 101.228L214.222 101.233L214.237 101.237L215.031 98.3438ZM207.125 97.9375L208.178 100.746L208.202 100.738L208.225 100.729L207.125 97.9375ZM205.625 98.9688L203.239 97.1506L203.211 97.1874L203.184 97.225L205.625 98.9688ZM205.969 102.375L203.808 104.456L203.827 104.476L203.847 104.496L205.969 102.375ZM208.75 104.219L207.374 106.885L207.4 106.898L207.425 106.911L208.75 104.219ZM214.094 106.75L212.833 109.472L212.85 109.48L212.866 109.487L214.094 106.75ZM219.781 110L217.986 112.404L217.997 112.412L218.007 112.419L219.781 110ZM223.344 114.156L220.66 115.498L220.671 115.519L220.682 115.539L223.344 114.156ZM221.594 120.125C221.594 122.074 221.109 123.925 220.102 125.72L225.335 128.655C226.829 125.992 227.594 123.134 227.594 120.125H221.594ZM220.108 125.71C219.191 127.33 217.714 128.745 215.492 129.901L218.258 135.224C221.327 133.63 223.747 131.462 225.33 128.665L220.108 125.71ZM215.483 129.905C213.426 130.982 210.555 131.625 206.688 131.625V137.625C211.154 137.625 215.074 136.893 218.267 135.22L215.483 129.905ZM206.688 131.625C204.689 131.625 202.977 131.535 201.54 131.365L200.835 137.323C202.564 137.528 204.52 137.625 206.688 137.625V131.625ZM201.545 131.365C200.141 131.197 198.86 130.929 197.695 130.57L195.93 136.305C197.473 136.78 199.109 137.116 200.83 137.322L201.545 131.365ZM197.735 130.583C196.517 130.189 195.23 129.676 193.873 129.036L191.314 134.464C192.874 135.199 194.399 135.811 195.89 136.292L197.735 130.583ZM195.594 131.75V120.75H189.594V131.75H195.594ZM191.243 123.429C193.897 124.767 196.592 125.802 199.327 126.525L200.861 120.725C198.554 120.115 196.249 119.233 193.944 118.071L191.243 123.429ZM199.349 126.531C202.05 127.223 204.587 127.594 206.938 127.594V121.594C205.205 121.594 203.179 121.319 200.838 120.719L199.349 126.531ZM206.938 127.594C208.368 127.594 209.766 127.429 210.999 126.962L208.876 121.35C208.568 121.467 207.965 121.594 206.938 121.594V127.594ZM210.975 126.971C212.124 126.548 213.264 125.867 214.088 124.769L209.287 121.169C209.361 121.07 209.334 121.181 208.9 121.341L210.975 126.971ZM214.122 124.722C214.88 123.67 215.25 122.457 215.25 121.188H209.25C209.25 121.213 209.248 121.228 209.247 121.232C209.247 121.237 209.247 121.235 209.249 121.229C209.251 121.223 209.253 121.217 209.255 121.213C209.258 121.208 209.258 121.209 209.253 121.216L214.122 124.722ZM215.25 121.188C215.25 119.593 214.646 118.142 213.487 117.027L209.325 121.348C209.334 121.357 209.328 121.353 209.316 121.335C209.303 121.316 209.288 121.291 209.275 121.26C209.262 121.229 209.255 121.203 209.252 121.185C209.248 121.169 209.25 121.168 209.25 121.188H215.25ZM213.567 117.107C212.677 116.182 211.448 115.417 210.123 114.754L207.44 120.121C208.532 120.667 209.053 121.068 209.245 121.268L213.567 117.107ZM210.123 114.754C208.866 114.126 207.233 113.358 205.237 112.454L202.763 117.921C204.725 118.809 206.28 119.541 207.44 120.121L210.123 114.754ZM205.274 112.472C203.668 111.718 202.232 110.955 200.961 110.184L197.851 115.316C199.33 116.212 200.957 117.074 202.726 117.903L205.274 112.472ZM200.979 110.195C199.835 109.491 198.887 108.714 198.112 107.873L193.7 111.939C194.883 113.223 196.269 114.342 197.834 115.305L200.979 110.195ZM198.153 107.919C197.459 107.134 196.908 106.206 196.508 105.103L190.867 107.147C191.509 108.919 192.437 110.512 193.659 111.894L198.153 107.919ZM196.508 105.103C196.134 104.071 195.906 102.734 195.906 101.031H189.906C189.906 103.245 190.199 105.304 190.867 107.147L196.508 105.103ZM195.906 101.031C195.906 98.5968 196.494 96.7897 197.49 95.4192L192.635 91.8933C190.756 94.4811 189.906 97.5907 189.906 101.031H195.906ZM197.487 95.4238C198.566 93.9427 200.095 92.7718 202.208 91.954L200.042 86.3585C196.988 87.5407 194.475 89.3698 192.638 91.8887L197.487 95.4238ZM202.2 91.9569C204.396 91.1139 207.019 90.6562 210.125 90.6562V84.6562C206.439 84.6562 203.063 85.1986 200.05 86.3556L202.2 91.9569ZM210.125 90.6562C212.885 90.6562 215.282 90.9655 217.345 91.5446L218.967 85.7679C216.28 85.0137 213.323 84.6562 210.125 84.6562V90.6562ZM217.352 91.5464C219.629 92.18 221.628 92.8917 223.361 93.6727L225.826 88.2023C223.768 87.275 221.475 86.4658 218.96 85.7661L217.352 91.5464ZM221.805 89.8312L218.024 99.3625L223.601 101.575L227.382 92.0438L221.805 89.8312ZM222.06 97.7406C219.969 96.7841 217.891 96.0182 215.826 95.4509L214.237 101.237C215.963 101.711 217.739 102.362 219.565 103.197L222.06 97.7406ZM215.855 95.4592C213.747 94.8566 211.706 94.5312 209.75 94.5312V100.531C211.044 100.531 212.524 100.748 214.207 101.228L215.855 95.4592ZM209.75 94.5312C208.462 94.5312 207.181 94.6912 206.025 95.1463L208.225 100.729C208.444 100.642 208.913 100.531 209.75 100.531V94.5312ZM206.072 95.1285C205.03 95.5193 204.001 96.1495 203.239 97.1506L208.011 100.787C207.966 100.846 207.935 100.865 207.95 100.855C207.968 100.843 208.035 100.8 208.178 100.746L206.072 95.1285ZM203.184 97.225C202.49 98.1958 202.156 99.3117 202.156 100.469H208.156C208.156 100.469 208.156 100.506 208.137 100.567C208.118 100.628 208.09 100.679 208.066 100.712L203.184 97.225ZM202.156 100.469C202.156 102.036 202.788 103.397 203.808 104.456L208.13 100.294C208.079 100.241 208.094 100.242 208.119 100.3C208.131 100.328 208.141 100.36 208.148 100.394C208.155 100.427 208.156 100.453 208.156 100.469H202.156ZM203.847 104.496C204.74 105.389 205.995 106.173 207.374 106.885L210.126 101.553C208.922 100.931 208.322 100.486 208.09 100.254L203.847 104.496ZM207.425 106.911C208.769 107.572 210.574 108.427 212.833 109.472L215.354 104.028C213.113 102.99 211.356 102.158 210.075 101.527L207.425 106.911ZM212.866 109.487C214.942 110.419 216.638 111.397 217.986 112.404L221.576 107.596C219.8 106.27 217.703 105.081 215.322 104.013L212.866 109.487ZM218.007 112.419C219.212 113.302 220.075 114.327 220.66 115.498L226.027 112.815C224.987 110.735 223.476 108.989 221.555 107.581L218.007 112.419ZM220.682 115.539C221.234 116.603 221.594 118.086 221.594 120.125H227.594C227.594 117.414 227.12 114.917 226.006 112.773L220.682 115.539ZM233.375 134H230.375V137H233.375V134ZM233.375 118.969H236.375V113.856L231.912 116.35L233.375 118.969ZM230.188 120.75L227.584 122.241L229.059 124.817L231.651 123.369L230.188 120.75ZM225.75 113L224.217 110.421L221.68 111.929L223.147 114.491L225.75 113ZM233.375 108.469L234.908 111.048L236.375 110.176V108.469H233.375ZM233.375 88.3125V85.3125H230.375V88.3125H233.375ZM245.719 88.3125H248.719V85.3125H245.719V88.3125ZM245.719 100.844H242.719V106.237L247.301 103.392L245.719 100.844ZM252.312 96.75L254.878 95.1942L253.305 92.6024L250.73 94.2013L252.312 96.75ZM256.938 104.375L258.52 106.923L261.042 105.357L259.503 102.819L256.938 104.375ZM245.719 111.344L244.136 108.795L242.719 109.676V111.344H245.719ZM245.719 124.031H242.719V127.031H245.719V124.031ZM263.312 124.031H266.312V121.031H263.312V124.031ZM263.312 134V137H266.312V134H263.312ZM236.375 134V118.969H230.375V134H236.375ZM231.912 116.35L228.724 118.131L231.651 123.369L234.838 121.588L231.912 116.35ZM232.791 119.259L228.353 111.509L223.147 114.491L227.584 122.241L232.791 119.259ZM227.283 115.579L234.908 111.048L231.842 105.89L224.217 110.421L227.283 115.579ZM236.375 108.469V88.3125H230.375V108.469H236.375ZM233.375 91.3125H245.719V85.3125H233.375V91.3125ZM242.719 88.3125V100.844H248.719V88.3125H242.719ZM247.301 103.392L253.895 99.2987L250.73 94.2013L244.136 98.295L247.301 103.392ZM249.747 98.3058L254.372 105.931L259.503 102.819L254.878 95.1942L249.747 98.3058ZM255.355 101.827L244.136 108.795L247.302 113.892L258.52 106.923L255.355 101.827ZM242.719 111.344V124.031H248.719V111.344H242.719ZM245.719 127.031H263.312V121.031H245.719V127.031ZM260.312 124.031V134H266.312V124.031H260.312ZM263.312 131H233.375V137H263.312V131ZM312.125 120.719L309.248 119.87L309.244 119.884L312.125 120.719ZM301.281 132.969L302.378 135.761L302.387 135.758L302.395 135.754L301.281 132.969ZM281.219 132.969L280.097 135.751L280.11 135.756L280.122 135.761L281.219 132.969ZM274.312 128.188L272.049 130.157L272.054 130.162L272.059 130.168L274.312 128.188ZM271.312 98.6562L268.576 97.4258L268.573 97.4333L271.312 98.6562ZM278.625 90.5L280.135 93.0926L280.147 93.0854L278.625 90.5ZM303.938 90.5L302.401 93.0769L302.409 93.0811L303.938 90.5ZM311.125 98.6875L308.371 99.8771L311.125 98.6875ZM282.906 118.188L280.046 119.091L282.906 118.188ZM296.594 122.75L294.742 120.39L294.733 120.397L294.724 120.404L296.594 122.75ZM299.5 118.188L296.631 117.312L296.626 117.325L296.622 117.339L299.5 118.188ZM298.344 101.312L295.742 102.806L298.344 101.312ZM285.844 99.3438L283.987 96.9873L283.978 96.9942L283.97 97.0011L285.844 99.3438ZM282.875 103.969L280.012 103.074L280.007 103.088L280.003 103.101L282.875 103.969ZM306.469 74.6562H309.469V71.6562H306.469V74.6562ZM306.469 75.3125L308.351 77.6488L309.469 76.7481V75.3125H306.469ZM303.594 77.5312L305.366 79.9518L305.38 79.9416L305.394 79.9313L303.594 77.5312ZM299.875 80.2188L301.611 82.6653L301.619 82.66L299.875 80.2188ZM296.094 82.8438L294.41 80.3606L294.4 80.3673L294.391 80.3741L296.094 82.8438ZM292.969 84.9062V87.9062H293.822L294.548 87.457L292.969 84.9062ZM284.844 84.9062H281.844V87.9062H284.844V84.9062ZM284.844 84L282.637 81.9676L281.844 82.8289V84H284.844ZM287.469 81.1875L289.652 83.2449L289.662 83.2345L289.672 83.2241L287.469 81.1875ZM293.094 74.6562V71.6562H291.554L290.656 72.9075L293.094 74.6562ZM310.406 111.094C310.406 114.374 310.008 117.291 309.248 119.87L315.002 121.567C315.95 118.355 316.406 114.855 316.406 111.094H310.406ZM309.244 119.884C308.519 122.383 307.4 124.471 305.913 126.2L310.462 130.112C312.558 127.675 314.064 124.804 315.006 121.554L309.244 119.884ZM305.913 126.2C304.467 127.881 302.578 129.219 300.167 130.183L302.395 135.754C305.609 134.469 308.325 132.598 310.462 130.112L305.913 126.2ZM300.185 130.176C297.808 131.109 294.835 131.625 291.188 131.625V137.625C295.374 137.625 299.129 137.037 302.378 135.761L300.185 130.176ZM291.188 131.625C287.633 131.625 284.698 131.112 282.315 130.176L280.122 135.761C283.364 137.034 287.076 137.625 291.188 137.625V131.625ZM282.34 130.186C279.941 129.219 278.04 127.885 276.566 126.207L272.059 130.168C274.21 132.615 276.913 134.468 280.097 135.751L282.34 130.186ZM276.576 126.218C275.067 124.485 273.917 122.38 273.153 119.851L267.409 121.586C268.395 124.849 269.933 127.724 272.049 130.157L276.576 126.218ZM273.153 119.851C272.377 117.281 271.969 114.351 271.969 111.031H265.969C265.969 114.837 266.436 118.364 267.409 121.586L273.153 119.851ZM271.969 111.031C271.969 106.605 272.697 102.914 274.052 99.8792L268.573 97.4333C266.803 101.399 265.969 105.958 265.969 111.031H271.969ZM274.049 99.8867C275.379 96.9284 277.392 94.6897 280.135 93.0925L277.115 87.9075C273.275 90.1436 270.413 93.3424 268.576 97.4258L274.049 99.8867ZM280.147 93.0854C282.846 91.4968 286.483 90.5938 291.25 90.5938V84.5938C285.767 84.5938 280.988 85.6282 277.103 87.9146L280.147 93.0854ZM291.25 90.5938C296.113 90.5938 299.759 91.5016 302.401 93.0768L305.474 87.9232C301.616 85.6234 296.804 84.5938 291.25 84.5938V90.5938ZM302.409 93.0811C305.129 94.6927 307.099 96.9323 308.371 99.8771L313.879 97.4979C312.109 93.401 309.287 90.1823 305.466 87.9189L302.409 93.0811ZM308.371 99.8771C309.696 102.944 310.406 106.658 310.406 111.094H316.406C316.406 106.029 315.596 101.473 313.879 97.4979L308.371 99.8771ZM278.969 111.094C278.969 114.057 279.304 116.742 280.046 119.091L285.767 117.284C285.259 115.675 284.969 113.631 284.969 111.094H278.969ZM280.046 119.091C280.814 121.526 282.103 123.604 284.023 125.11L287.727 120.39C286.939 119.771 286.248 118.808 285.767 117.284L280.046 119.091ZM284.023 125.11C286.035 126.688 288.513 127.344 291.188 127.344V121.344C289.487 121.344 288.424 120.937 287.727 120.39L284.023 125.11ZM291.188 127.344C293.912 127.344 296.446 126.704 298.463 125.096L294.724 120.404C294.075 120.921 293.005 121.344 291.188 121.344V127.344ZM298.446 125.11C300.382 123.591 301.654 121.492 302.378 119.036L296.622 117.339C296.18 118.842 295.514 119.784 294.742 120.39L298.446 125.11ZM302.369 119.063C303.083 116.725 303.406 114.049 303.406 111.094H297.406C297.406 113.638 297.125 115.692 296.631 117.312L302.369 119.063ZM303.406 111.094C303.406 106.684 302.679 102.84 300.946 99.8192L295.742 102.806C296.758 104.577 297.406 107.253 297.406 111.094H303.406ZM300.946 99.8192C298.913 96.278 295.408 94.7188 291.25 94.7188V100.719C293.801 100.719 295.024 101.555 295.742 102.806L300.946 99.8192ZM291.25 94.7188C288.534 94.7188 286.021 95.3845 283.987 96.9873L287.7 101.7C288.416 101.136 289.507 100.719 291.25 100.719V94.7188ZM283.97 97.0011C282.059 98.5295 280.777 100.624 280.012 103.074L285.738 104.864C286.223 103.313 286.92 102.325 287.718 101.686L283.97 97.0011ZM280.003 103.101C279.292 105.455 278.969 108.137 278.969 111.094H284.969C284.969 108.551 285.25 106.482 285.747 104.836L280.003 103.101ZM303.469 74.6562V75.3125H309.469V74.6562H303.469ZM304.587 72.9762C303.874 73.5507 302.945 74.2677 301.794 75.1312L305.394 79.9313C306.576 79.0448 307.564 78.2826 308.351 77.6488L304.587 72.9762ZM301.822 75.1107C300.665 75.9572 299.435 76.8461 298.131 77.7775L301.619 82.66C302.94 81.7164 304.189 80.8137 305.366 79.9518L301.822 75.1107ZM298.139 77.7722C296.863 78.6773 295.621 79.5401 294.41 80.3606L297.777 85.3269C299.025 84.4808 300.303 83.5935 301.611 82.6653L298.139 77.7722ZM294.391 80.3741C293.207 81.1901 292.209 81.8482 291.39 82.3555L294.548 87.457C295.478 86.881 296.563 86.1641 297.797 85.3134L294.391 80.3741ZM292.969 81.9062H284.844V87.9062H292.969V81.9062ZM287.844 84.9062V84H281.844V84.9062H287.844ZM287.05 86.0324C287.77 85.2516 288.636 84.3228 289.652 83.2449L285.285 79.1301C284.259 80.2188 283.376 81.1651 282.637 81.9676L287.05 86.0324ZM289.672 83.2241C290.705 82.1061 291.738 80.9674 292.771 79.8081L288.291 75.8169C287.282 76.9492 286.274 78.0606 285.266 79.1509L289.672 83.2241ZM292.771 79.8081C293.843 78.6055 294.767 77.47 295.531 76.405L290.656 72.9075C290.045 73.7591 289.262 74.7278 288.291 75.8169L292.771 79.8081ZM293.094 77.6562H306.469V71.6562H293.094V77.6562ZM382.25 88.3125L385.163 89.0298L386.078 85.3125H382.25V88.3125ZM371 134V137H373.351L373.913 134.717L371 134ZM356.406 134L353.476 134.644L353.994 137H356.406V134ZM352.031 114.094L354.961 113.45L354.96 113.443L352.031 114.094ZM351.625 112.188L348.676 112.736L348.682 112.769L348.689 112.802L351.625 112.188ZM351.031 109.125L348.08 109.662L348.084 109.688L348.09 109.713L351.031 109.125ZM350.438 105.75L347.47 106.19L347.475 106.221L347.48 106.252L350.438 105.75ZM350.062 102.906L353.045 102.584H347.08L350.062 102.906ZM349.656 105.75L352.614 106.252L352.615 106.243L349.656 105.75ZM349.031 109.125L346.09 108.537L346.084 108.562L346.08 108.588L349.031 109.125ZM348.406 112.188L345.484 111.508L345.477 111.54L345.47 111.573L348.406 112.188ZM348 114.094L345.071 113.443L345.071 113.445L348 114.094ZM343.594 134V137H346.002L346.523 134.648L343.594 134ZM329 134L326.088 134.721L326.652 137H329V134ZM317.688 88.3125V85.3125H313.854L314.775 89.0335L317.688 88.3125ZM329.594 88.3125L332.526 87.6765L332.013 85.3125H329.594V88.3125ZM334.562 111.219L331.631 111.855L331.632 111.862L331.634 111.87L334.562 111.219ZM335.062 113.625L332.121 114.213L332.128 114.248L332.135 114.282L335.062 113.625ZM335.75 117L332.801 117.55L332.806 117.579L332.812 117.608L335.75 117ZM336.875 123.312L333.893 123.644L339.85 123.696L336.875 123.312ZM337.531 118.906L334.577 118.383L334.574 118.401L334.571 118.419L337.531 118.906ZM338.469 113.906L335.531 113.297L335.528 113.311L335.526 113.325L338.469 113.906ZM340.281 105.594L343.192 106.321L343.197 106.298L343.203 106.275L340.281 105.594ZM344.312 88.3125V85.3125H341.932L341.391 87.631L344.312 88.3125ZM355.75 88.3125L358.676 87.6511L358.148 85.3125H355.75V88.3125ZM359.656 105.594L356.73 106.255L356.732 106.264L356.734 106.273L359.656 105.594ZM360.438 109.156L357.502 109.776L357.507 109.801L357.513 109.825L360.438 109.156ZM361.438 113.906L358.493 114.481L358.496 114.498L358.5 114.515L361.438 113.906ZM362.406 118.969L359.451 119.486L359.452 119.492L362.406 118.969ZM363.062 123.312L360.083 123.66L366.041 123.67L363.062 123.312ZM363.688 119.375L366.638 119.918L366.639 119.912L363.688 119.375ZM364.562 114.719L361.624 114.115L361.621 114.131L361.618 114.146L364.562 114.719ZM365.281 111.281L362.352 110.636L362.349 110.647L365.281 111.281ZM370.344 88.3125V85.3125H367.933L367.414 87.6668L370.344 88.3125ZM379.337 87.5952L368.087 133.283L373.913 134.717L385.163 89.0298L379.337 87.5952ZM371 131H356.406V137H371V131ZM359.336 133.356L354.961 113.45L349.101 114.738L353.476 134.644L359.336 133.356ZM354.96 113.443C354.881 113.088 354.749 112.469 354.561 111.573L348.689 112.802C348.876 113.698 349.015 114.35 349.103 114.745L354.96 113.443ZM354.574 111.639C354.405 110.727 354.204 109.692 353.973 108.537L348.09 109.713C348.317 110.849 348.512 111.857 348.676 112.736L354.574 111.639ZM353.983 108.588C353.777 107.454 353.581 106.34 353.395 105.248L347.48 106.252C347.669 107.368 347.869 108.505 348.08 109.662L353.983 108.588ZM353.405 105.31C353.242 104.208 353.123 103.302 353.045 102.584L347.08 103.229C347.169 104.052 347.3 105.042 347.47 106.19L353.405 105.31ZM347.08 102.584C347.005 103.278 346.879 104.165 346.697 105.257L352.615 106.243C352.808 105.085 352.953 104.076 353.045 103.229L347.08 102.584ZM346.699 105.248C346.516 106.322 346.313 107.418 346.09 108.537L351.973 109.713C352.208 108.54 352.421 107.386 352.614 106.252L346.699 105.248ZM346.08 108.588C345.878 109.698 345.679 110.67 345.484 111.508L351.328 112.867C351.55 111.913 351.768 110.843 351.983 109.662L346.08 108.588ZM345.47 111.573C345.282 112.469 345.15 113.088 345.071 113.443L350.929 114.745C351.016 114.35 351.155 113.698 351.343 112.802L345.47 111.573ZM345.071 113.445L340.665 133.352L346.523 134.648L350.929 114.742L345.071 113.445ZM343.594 131H329V137H343.594V131ZM331.912 133.279L320.6 87.5915L314.775 89.0335L326.088 134.721L331.912 133.279ZM317.688 91.3125H329.594V85.3125H317.688V91.3125ZM326.662 88.9485L331.631 111.855L337.494 110.583L332.526 87.6765L326.662 88.9485ZM331.634 111.87C331.752 112.401 331.914 113.178 332.121 114.213L338.004 113.037C337.795 111.988 337.623 111.162 337.491 110.568L331.634 111.87ZM332.135 114.282C332.355 115.261 332.577 116.35 332.801 117.55L338.699 116.45C338.465 115.192 338.228 114.03 337.99 112.968L332.135 114.282ZM332.812 117.608C333.058 118.797 333.283 119.943 333.488 121.046L339.387 119.954C339.175 118.807 338.942 117.619 338.688 116.392L332.812 117.608ZM333.488 121.046C333.689 122.132 333.821 122.992 333.893 123.644L339.857 122.981C339.762 122.133 339.603 121.118 339.387 119.954L333.488 121.046ZM339.85 123.696C340.012 122.447 340.225 121.014 340.491 119.393L334.571 118.419C334.296 120.09 334.072 121.594 333.9 122.929L339.85 123.696ZM340.485 119.43C340.773 117.804 341.082 116.156 341.412 114.488L335.526 113.325C335.189 115.031 334.872 116.717 334.577 118.383L340.485 119.43ZM341.406 114.515C341.759 112.812 342.091 111.236 342.402 109.785L336.535 108.528C336.221 109.994 335.887 111.583 335.531 113.297L341.406 114.515ZM342.402 109.785C342.711 108.343 342.974 107.192 343.192 106.321L337.371 104.866C337.13 105.829 336.851 107.053 336.535 108.528L342.402 109.785ZM343.203 106.275L347.234 88.994L341.391 87.631L337.36 104.912L343.203 106.275ZM344.312 91.3125H355.75V85.3125H344.312V91.3125ZM352.824 88.9739L356.73 106.255L362.582 104.932L358.676 87.6511L352.824 88.9739ZM356.734 106.273C356.936 107.141 357.192 108.306 357.502 109.776L363.373 108.536C363.058 107.048 362.793 105.838 362.578 104.914L356.734 106.273ZM357.513 109.825C357.838 111.247 358.165 112.799 358.493 114.481L364.382 113.332C364.043 111.597 363.704 109.982 363.362 108.488L357.513 109.825ZM358.5 114.515C358.848 116.194 359.165 117.851 359.451 119.486L365.361 118.452C365.064 116.753 364.735 115.035 364.375 113.297L358.5 114.515ZM359.452 119.492C359.737 121.097 359.946 122.484 360.083 123.66L366.042 122.965C365.888 121.641 365.659 120.132 365.36 118.445L359.452 119.492ZM366.041 123.67C366.156 122.714 366.352 121.469 366.638 119.918L360.737 118.832C360.439 120.448 360.219 121.828 360.084 122.955L366.041 123.67ZM366.639 119.912C366.929 118.319 367.218 116.779 367.507 115.291L361.618 114.146C361.324 115.659 361.03 117.223 360.736 118.838L366.639 119.912ZM367.501 115.323C367.813 113.804 368.05 112.671 368.213 111.915L362.349 110.647C362.179 111.434 361.937 112.592 361.624 114.115L367.501 115.323ZM368.211 111.927L373.273 88.9582L367.414 87.6668L362.352 110.636L368.211 111.927ZM370.344 91.3125H382.25V85.3125H370.344V91.3125Z" fill="white"/>
</g>
<g filter="url(#filter2_d_34_62)">
<path d="M373.995 135.663C374.085 134.285 373.041 133.095 371.663 133.005L349.211 131.54C347.833 131.45 346.643 132.494 346.553 133.872C346.463 135.25 347.507 136.44 348.885 136.53L368.843 137.832L367.541 157.789C367.451 159.167 368.495 160.357 369.872 160.447C371.25 160.537 372.44 159.493 372.53 158.115L373.995 135.663ZM111.623 60.7259C91.5584 122.338 93.5993 161.973 110.055 185.527C126.586 209.188 156.904 215.604 190.652 212.728C224.509 209.844 262.628 197.566 295.943 182.796C329.239 168.034 358.021 150.654 373.149 137.379L369.851 133.621C355.256 146.429 326.982 163.565 293.916 178.225C260.869 192.877 223.32 204.927 190.227 207.746C157.025 210.575 129.111 204.072 114.154 182.664C99.1219 161.148 96.4181 123.562 116.377 62.2741L111.623 60.7259Z" fill="#A31621"/>
</g>
<defs>
<filter id="filter0_d_34_62" x="102.125" y="19.3945" width="155.547" height="49.1523" filterUnits="userSpaceOnUse" color-interpolation-filters="sRGB">
<feFlood flood-opacity="0" result="BackgroundImageFix"/>
<feColorMatrix in="SourceAlpha" type="matrix" values="0 0 0 0 0 0 0 0 0 0 0 0 0 0 0 0 0 0 127 0" result="hardAlpha"/>
<feOffset dy="4"/>
<feGaussianBlur stdDeviation="2"/>
<feComposite in2="hardAlpha" operator="out"/>
<feColorMatrix type="matrix" values="0 0 0 0 0 0 0 0 0 0 0 0 0 0 0 0 0 0 0.25 0"/>
<feBlend mode="normal" in2="BackgroundImageFix" result="effect1_dropShadow_34_62"/>
<feBlend mode="normal" in="SourceGraphic" in2="effect1_dropShadow_34_62" result="shape"/>
</filter>
<filter id="filter1_d_34_62" x="188.594" y="74.6562" width="197.656" height="67.9688" filterUnits="userSpaceOnUse" color-interpolation-filters="sRGB">
<feFlood flood-opacity="0" result="BackgroundImageFix"/>
<feColorMatrix in="SourceAlpha" type="matrix" values="0 0 0 0 0 0 0 0 0 0 0 0 0 0 0 0 0 0 127 0" result="hardAlpha"/>
<feOffset dy="4"/>
<feGaussianBlur stdDeviation="2"/>
<feComposite in2="hardAlpha" operator="out"/>
<feColorMatrix type="matrix" values="0 0 0 0 0 0 0 0 0 0 0 0 0 0 0 0 0 0 0.25 0"/>
<feBlend mode="normal" in2="BackgroundImageFix" result="effect1_dropShadow_34_62"/>
<feBlend mode="normal" in="SourceGraphic" in2="effect1_dropShadow_34_62" result="shape"/>
</filter>
<filter id="filter2_d_34_62" x="93.1433" y="60.7259" width="284.857" height="160.643" filterUnits="userSpaceOnUse" color-interpolation-filters="sRGB">
<feFlood flood-opacity="0" result="BackgroundImageFix"/>
<feColorMatrix in="SourceAlpha" type="matrix" values="0 0 0 0 0 0 0 0 0 0 0 0 0 0 0 0 0 0 127 0" result="hardAlpha"/>
<feOffset dy="4"/>
<feGaussianBlur stdDeviation="2"/>
<feComposite in2="hardAlpha" operator="out"/>
<feColorMatrix type="matrix" values="0 0 0 0 0 0 0 0 0 0 0 0 0 0 0 0 0 0 0.25 0"/>
<feBlend mode="normal" in2="BackgroundImageFix" result="effect1_dropShadow_34_62"/>
<feBlend mode="normal" in="SourceGraphic" in2="effect1_dropShadow_34_62" result="shape"/>
</filter>
</defs>
</svg>
