<svg width="375" height="101" viewBox="0 0 375 101" fill="none" xmlns="http://www.w3.org/2000/svg">
<g filter="url(#filter0_d_64_3)">
<path d="M42.0586 60H31.2578V28.8555H21.4961V20.0234H51.793V28.8555H42.0586V60ZM70.6055 20.0234C74.2331 20.0234 77.25 20.4701 79.6562 21.3633C82.0625 22.2383 83.8672 23.5508 85.0703 25.3008C86.2917 27.0508 86.9023 29.2292 86.9023 31.8359C86.9023 33.4583 86.6289 34.9349 86.082 36.2656C85.5352 37.5964 84.7513 38.7904 83.7305 39.8477C82.7279 40.8867 81.5247 41.7982 80.1211 42.582L91.7695 60H79.5195L71.043 45.4531H68.3086V60H57.5078V20.0234H70.6055ZM70.4414 28.1992H68.3086V37.332H70.332C71.9909 37.332 73.349 36.9674 74.4062 36.2383C75.4635 35.5091 75.9922 34.2057 75.9922 32.3281C75.9922 31.0339 75.5547 30.0221 74.6797 29.293C73.8047 28.5638 72.3919 28.1992 70.4414 28.1992ZM132.812 39.957C132.812 43.0378 132.439 45.8451 131.691 48.3789C130.962 50.8945 129.814 53.0638 128.246 54.8867C126.678 56.7096 124.664 58.1133 122.203 59.0977C119.742 60.0638 116.798 60.5469 113.371 60.5469C110.017 60.5469 107.109 60.0638 104.648 59.0977C102.206 58.1133 100.191 56.7188 98.6055 54.9141C97.0195 53.0911 95.8438 50.9128 95.0781 48.3789C94.3125 45.8451 93.9297 43.0195 93.9297 39.9023C93.9297 35.7461 94.6133 32.1367 95.9805 29.0742C97.3659 25.9935 99.4987 23.6146 102.379 21.9375C105.259 20.2422 108.941 19.3945 113.426 19.3945C117.983 19.3945 121.684 20.2422 124.527 21.9375C127.389 23.6328 129.486 26.0208 130.816 29.1016C132.147 32.1823 132.812 35.8008 132.812 39.957ZM105.305 39.957C105.305 42.3633 105.578 44.4323 106.125 46.1641C106.672 47.8958 107.538 49.2266 108.723 50.1562C109.908 51.0859 111.457 51.5508 113.371 51.5508C115.358 51.5508 116.935 51.0859 118.102 50.1562C119.286 49.2266 120.134 47.8958 120.645 46.1641C121.173 44.4323 121.438 42.3633 121.438 39.957C121.438 36.3477 120.836 33.4948 119.633 31.3984C118.43 29.3021 116.361 28.2539 113.426 28.2539C111.475 28.2539 109.898 28.7279 108.695 29.6758C107.51 30.6237 106.645 31.9727 106.098 33.7227C105.569 35.4727 105.305 37.5508 105.305 39.957ZM153.867 20.0234C158.935 20.0234 162.727 21.1263 165.242 23.332C167.776 25.5378 169.043 28.6732 169.043 32.7383C169.043 34.5612 168.779 36.3112 168.25 37.9883C167.74 39.6654 166.892 41.1602 165.707 42.4727C164.54 43.7852 162.982 44.8242 161.031 45.5898C159.099 46.3555 156.711 46.7383 153.867 46.7383H150.832V60H140.031V20.0234H153.867ZM153.621 28.7461H150.832V37.9336H152.965C153.895 37.9336 154.76 37.7786 155.562 37.4688C156.365 37.1406 157.003 36.6211 157.477 35.9102C157.969 35.181 158.215 34.2148 158.215 33.0117C158.215 31.7539 157.841 30.7331 157.094 29.9492C156.346 29.1471 155.189 28.7461 153.621 28.7461ZM216.102 47.8594C216.102 50.0286 215.555 52.0885 214.461 54.0391C213.367 55.9714 211.663 57.5391 209.348 58.7422C207.051 59.9453 204.079 60.5469 200.434 60.5469C198.611 60.5469 197.007 60.4648 195.621 60.3008C194.254 60.1367 192.978 59.8724 191.793 59.5078C190.608 59.125 189.378 58.6328 188.102 58.0312V48.4062C190.271 49.5 192.458 50.3385 194.664 50.9219C196.87 51.487 198.866 51.7695 200.652 51.7695C201.728 51.7695 202.603 51.6419 203.277 51.3867C203.97 51.1315 204.48 50.7852 204.809 50.3477C205.137 49.8919 205.301 49.3724 205.301 48.7891C205.301 48.0964 205.055 47.513 204.562 47.0391C204.089 46.5469 203.323 46.0365 202.266 45.5078C201.208 44.9792 199.814 44.3229 198.082 43.5391C196.605 42.8464 195.266 42.1354 194.062 41.4062C192.878 40.6771 191.857 39.8477 191 38.918C190.161 37.9701 189.514 36.8672 189.059 35.6094C188.603 34.3516 188.375 32.8659 188.375 31.1523C188.375 28.582 189.004 26.431 190.262 24.6992C191.538 22.9492 193.306 21.6367 195.566 20.7617C197.845 19.8867 200.47 19.4492 203.441 19.4492C206.048 19.4492 208.391 19.7409 210.469 20.3242C212.565 20.9076 214.443 21.5729 216.102 22.3203L212.793 30.6602C211.079 29.8763 209.393 29.2565 207.734 28.8008C206.076 28.3268 204.535 28.0898 203.113 28.0898C202.184 28.0898 201.418 28.2083 200.816 28.4453C200.233 28.6641 199.796 28.9648 199.504 29.3477C199.23 29.7305 199.094 30.168 199.094 30.6602C199.094 31.2799 199.331 31.8359 199.805 32.3281C200.297 32.8203 201.108 33.3581 202.238 33.9414C203.387 34.5065 204.945 35.2448 206.914 36.1562C208.865 37.0312 210.523 37.9792 211.891 39C213.258 40.0026 214.297 41.2148 215.008 42.6367C215.737 44.0404 216.102 45.7812 216.102 47.8594ZM223.785 60V46.8477L220.996 48.4062L217.113 41.625L223.785 37.6602V20.0234H234.586V30.9883L240.355 27.4062L244.402 34.0781L234.586 40.1758V51.2773H249.98V60H223.785ZM293.812 39.957C293.812 43.0378 293.439 45.8451 292.691 48.3789C291.962 50.8945 290.814 53.0638 289.246 54.8867C287.678 56.7096 285.664 58.1133 283.203 59.0977C280.742 60.0638 277.798 60.5469 274.371 60.5469C271.017 60.5469 268.109 60.0638 265.648 59.0977C263.206 58.1133 261.191 56.7188 259.605 54.9141C258.02 53.0911 256.844 50.9128 256.078 48.3789C255.312 45.8451 254.93 43.0195 254.93 39.9023C254.93 35.7461 255.613 32.1367 256.98 29.0742C258.366 25.9935 260.499 23.6146 263.379 21.9375C266.259 20.2422 269.941 19.3945 274.426 19.3945C278.983 19.3945 282.684 20.2422 285.527 21.9375C288.389 23.6328 290.486 26.0208 291.816 29.1016C293.147 32.1823 293.812 35.8008 293.812 39.957ZM266.305 39.957C266.305 42.3633 266.578 44.4323 267.125 46.1641C267.672 47.8958 268.538 49.2266 269.723 50.1562C270.908 51.0859 272.457 51.5508 274.371 51.5508C276.358 51.5508 277.935 51.0859 279.102 50.1562C280.286 49.2266 281.134 47.8958 281.645 46.1641C282.173 44.4323 282.438 42.3633 282.438 39.957C282.438 36.3477 281.836 33.4948 280.633 31.3984C279.43 29.3021 277.361 28.2539 274.426 28.2539C272.475 28.2539 270.898 28.7279 269.695 29.6758C268.51 30.6237 267.645 31.9727 267.098 33.7227C266.569 35.4727 266.305 37.5508 266.305 39.957ZM287.742 8.07422V8.64844C287.086 9.17708 286.247 9.82422 285.227 10.5898C284.206 11.3372 283.121 12.1211 281.973 12.9414C280.842 13.7435 279.74 14.5091 278.664 15.2383C277.607 15.9674 276.695 16.569 275.93 17.043H268.82V16.25C269.458 15.5573 270.224 14.737 271.117 13.7891C272.01 12.8229 272.904 11.8385 273.797 10.8359C274.69 9.83333 275.438 8.91276 276.039 8.07422H287.742ZM354.051 20.0234L344.207 60H331.438L327.609 42.582C327.536 42.2539 327.418 41.6979 327.254 40.9141C327.108 40.1302 326.935 39.237 326.734 38.2344C326.552 37.2318 326.379 36.2474 326.215 35.2812C326.069 34.2969 325.96 33.4674 325.887 32.793C325.814 33.4674 325.695 34.2969 325.531 35.2812C325.367 36.2474 325.185 37.2318 324.984 38.2344C324.802 39.237 324.62 40.1302 324.438 40.9141C324.273 41.6979 324.155 42.2539 324.082 42.582L320.227 60H307.457L297.559 20.0234H307.977L312.324 40.0664C312.434 40.5586 312.579 41.2604 312.762 42.1719C312.962 43.0651 313.163 44.0495 313.363 45.125C313.582 46.1823 313.783 47.2031 313.965 48.1875C314.147 49.1719 314.275 49.9922 314.348 50.6484C314.493 49.5182 314.685 48.2331 314.922 46.793C315.177 45.3529 315.451 43.8945 315.742 42.418C316.052 40.9232 316.344 39.5378 316.617 38.2617C316.891 36.9857 317.128 35.9466 317.328 35.1445L320.855 20.0234H330.863L334.281 35.1445C334.464 35.9284 334.691 36.9674 334.965 38.2617C335.257 39.5378 335.548 40.9232 335.84 42.418C336.15 43.9128 336.432 45.3893 336.688 46.8477C336.943 48.2878 337.134 49.5547 337.262 50.6484C337.371 49.737 337.553 48.5885 337.809 47.2031C338.064 45.7995 338.319 44.4414 338.574 43.1289C338.848 41.7982 339.057 40.7956 339.203 40.1211L343.633 20.0234H354.051Z" fill="#F18F01"/>
<path d="M42.0586 60V63H45.0586V60H42.0586ZM31.2578 60H28.2578V63H31.2578V60ZM31.2578 28.8555H34.2578V25.8555H31.2578V28.8555ZM21.4961 28.8555H18.4961V31.8555H21.4961V28.8555ZM21.4961 20.0234V17.0234H18.4961V20.0234H21.4961ZM51.793 20.0234H54.793V17.0234H51.793V20.0234ZM51.793 28.8555V31.8555H54.793V28.8555H51.793ZM42.0586 28.8555V25.8555H39.0586V28.8555H42.0586ZM42.0586 57H31.2578V63H42.0586V57ZM34.2578 60V28.8555H28.2578V60H34.2578ZM31.2578 25.8555H21.4961V31.8555H31.2578V25.8555ZM24.4961 28.8555V20.0234H18.4961V28.8555H24.4961ZM21.4961 23.0234H51.793V17.0234H21.4961V23.0234ZM48.793 20.0234V28.8555H54.793V20.0234H48.793ZM51.793 25.8555H42.0586V31.8555H51.793V25.8555ZM39.0586 28.8555V60H45.0586V28.8555H39.0586ZM79.6562 21.3633L78.6122 24.1758L78.6216 24.1792L78.631 24.1827L79.6562 21.3633ZM85.0703 25.3008L82.5982 27.0004L82.6042 27.0091L82.6102 27.0177L85.0703 25.3008ZM83.7305 39.8477L81.5723 37.7639L81.5716 37.7645L83.7305 39.8477ZM80.1211 42.582L78.6584 39.9628L75.8203 41.5477L77.6274 44.2497L80.1211 42.582ZM91.7695 60V63H97.3848L94.2633 58.3323L91.7695 60ZM79.5195 60L76.9275 61.5104L77.7955 63H79.5195V60ZM71.043 45.4531L73.635 43.9427L72.767 42.4531H71.043V45.4531ZM68.3086 45.4531V42.4531H65.3086V45.4531H68.3086ZM68.3086 60V63H71.3086V60H68.3086ZM57.5078 60H54.5078V63H57.5078V60ZM57.5078 20.0234V17.0234H54.5078V20.0234H57.5078ZM68.3086 28.1992V25.1992H65.3086V28.1992H68.3086ZM68.3086 37.332H65.3086V40.332H68.3086V37.332ZM70.6055 23.0234C74.0124 23.0234 76.6472 23.4463 78.6122 24.1758L80.7003 18.5508C77.8528 17.4938 74.4538 17.0234 70.6055 17.0234V23.0234ZM78.631 24.1827C80.5734 24.889 81.8167 25.8636 82.5982 27.0004L87.5424 23.6012C85.9177 21.2379 83.5516 19.5876 80.6815 18.5439L78.631 24.1827ZM82.6102 27.0177C83.4087 28.1618 83.9023 29.7053 83.9023 31.8359H89.9023C89.9023 28.753 89.1747 25.9398 87.5304 23.5838L82.6102 27.0177ZM83.9023 31.8359C83.9023 33.1169 83.6876 34.1997 83.3072 35.1253L88.8568 37.406C89.5702 35.6701 89.9023 33.7997 89.9023 31.8359H83.9023ZM83.3072 35.1253C82.9076 36.0978 82.3356 36.9733 81.5723 37.7639L85.8887 41.9314C87.167 40.6074 88.1628 39.0949 88.8568 37.406L83.3072 35.1253ZM81.5716 37.7645C80.7952 38.5692 79.8337 39.3064 78.6584 39.9628L81.5838 45.2013C83.2157 44.2899 84.6605 43.2042 85.8893 41.9308L81.5716 37.7645ZM77.6274 44.2497L89.2758 61.6677L94.2633 58.3323L82.6148 40.9143L77.6274 44.2497ZM91.7695 57H79.5195V63H91.7695V57ZM82.1116 58.4896L73.635 43.9427L68.4509 46.9635L76.9275 61.5104L82.1116 58.4896ZM71.043 42.4531H68.3086V48.4531H71.043V42.4531ZM65.3086 45.4531V60H71.3086V45.4531H65.3086ZM68.3086 57H57.5078V63H68.3086V57ZM60.5078 60V20.0234H54.5078V60H60.5078ZM57.5078 23.0234H70.6055V17.0234H57.5078V23.0234ZM70.4414 25.1992H68.3086V31.1992H70.4414V25.1992ZM65.3086 28.1992V37.332H71.3086V28.1992H65.3086ZM68.3086 40.332H70.332V34.332H68.3086V40.332ZM70.332 40.332C72.4228 40.332 74.4235 39.8707 76.1095 38.7079L72.703 33.7686C72.2744 34.0642 71.5589 34.332 70.332 34.332V40.332ZM76.1095 38.7079C78.3092 37.1908 78.9922 34.7076 78.9922 32.3281H72.9922C72.9922 33.0026 72.8949 33.3909 72.8157 33.5863C72.7497 33.7489 72.7038 33.7682 72.703 33.7686L76.1095 38.7079ZM78.9922 32.3281C78.9922 30.2797 78.2574 28.3692 76.6002 26.9883L72.7591 31.5976C72.852 31.675 72.9922 31.788 72.9922 32.3281H78.9922ZM76.6002 26.9883C74.9172 25.5858 72.6382 25.1992 70.4414 25.1992V31.1992C72.1456 31.1992 72.6921 31.5418 72.7591 31.5976L76.6002 26.9883ZM131.691 48.3789L128.814 47.5302L128.81 47.5437L131.691 48.3789ZM122.203 59.0977L123.299 61.8902L123.308 61.8867L123.317 61.8831L122.203 59.0977ZM104.648 59.0977L103.527 61.8802L103.54 61.8852L103.552 61.8902L104.648 59.0977ZM98.6055 54.9141L96.3421 56.8832L96.347 56.8888L96.352 56.8944L98.6055 54.9141ZM95.9805 29.0742L93.2444 27.8438L93.2411 27.8513L95.9805 29.0742ZM102.379 21.9375L103.888 24.5301L103.901 24.5229L102.379 21.9375ZM124.527 21.9375L122.991 24.5144L122.998 24.5186L124.527 21.9375ZM130.816 29.1016L128.062 30.2912L130.816 29.1016ZM106.125 46.1641L103.264 47.0675L106.125 46.1641ZM118.102 50.1562L116.25 47.796L116.241 47.803L116.232 47.8101L118.102 50.1562ZM120.645 46.1641L117.775 45.2882L117.771 45.302L117.767 45.3159L120.645 46.1641ZM119.633 31.3984L117.031 32.8917L119.633 31.3984ZM108.695 29.6758L106.839 27.3193L106.83 27.3262L106.821 27.3332L108.695 29.6758ZM106.098 33.7227L103.234 32.8278L103.23 32.8415L103.226 32.8551L106.098 33.7227ZM129.812 39.957C129.812 42.7969 129.468 45.3132 128.814 47.5302L134.569 49.2276C135.41 46.3769 135.812 43.2786 135.812 39.957H129.812ZM128.81 47.5437C128.19 49.6839 127.235 51.4618 125.972 52.9306L130.521 56.8428C132.393 54.6658 133.735 52.1052 134.573 49.2141L128.81 47.5437ZM125.972 52.9306C124.75 54.3515 123.149 55.4883 121.089 56.3122L123.317 61.8831C126.179 60.7382 128.607 59.0678 130.521 56.8428L125.972 52.9306ZM121.107 56.3051C119.082 57.1002 116.529 57.5469 113.371 57.5469V63.5469C117.068 63.5469 120.403 63.0274 123.299 61.8902L121.107 56.3051ZM113.371 57.5469C110.295 57.5469 107.777 57.1028 105.745 56.3051L103.552 61.8902C106.442 63.0248 109.738 63.5469 113.371 63.5469V57.5469ZM105.77 56.3151C103.719 55.4888 102.106 54.3533 100.859 52.9337L96.352 56.8944C98.2763 59.0842 100.692 60.7377 103.527 61.8802L105.77 56.3151ZM100.869 52.945C99.5869 51.4715 98.6047 49.6782 97.9499 47.5112L92.2064 49.2466C93.0828 52.1473 94.4522 54.7108 96.3421 56.8832L100.869 52.945ZM97.9499 47.5112C97.2828 45.3035 96.9297 42.7763 96.9297 39.9023H90.9297C90.9297 43.2628 91.3422 46.3866 92.2064 49.2466L97.9499 47.5112ZM96.9297 39.9023C96.9297 36.0695 97.5604 32.8944 98.7199 30.2972L93.2411 27.8513C91.6662 31.3791 90.9297 35.4227 90.9297 39.9023H96.9297ZM98.7165 30.3046C99.849 27.7865 101.557 25.8876 103.888 24.53L100.869 19.345C97.4404 21.3416 94.8828 24.2005 93.2444 27.8438L98.7165 30.3046ZM103.901 24.5229C106.188 23.1765 109.3 22.3945 113.426 22.3945V16.3945C108.583 16.3945 104.33 17.3079 100.857 19.3521L103.901 24.5229ZM113.426 22.3945C117.637 22.3945 120.755 23.1813 122.991 24.5143L126.064 19.3607C122.612 17.3031 118.329 16.3945 113.426 16.3945V22.3945ZM122.998 24.5186C125.31 25.888 126.98 27.7865 128.062 30.2912L133.57 27.9119C131.991 24.2552 129.468 21.3776 126.056 19.3564L122.998 24.5186ZM128.062 30.2912C129.197 32.9181 129.812 36.1152 129.812 39.957H135.812C135.812 35.4864 135.097 31.4465 133.57 27.9119L128.062 30.2912ZM102.305 39.957C102.305 42.5765 102.601 44.9661 103.264 47.0675L108.986 45.2607C108.556 43.8985 108.305 42.1501 108.305 39.957H102.305ZM103.264 47.0675C103.955 49.2549 105.12 51.1428 106.871 52.5165L110.575 47.796C109.955 47.3103 109.389 46.5368 108.986 45.2607L103.264 47.0675ZM106.871 52.5165C108.713 53.9618 110.97 54.5508 113.371 54.5508V48.5508C111.944 48.5508 111.102 48.2101 110.575 47.796L106.871 52.5165ZM113.371 54.5508C115.812 54.5508 118.12 53.9774 119.971 52.5024L116.232 47.8101C115.75 48.1945 114.904 48.5508 113.371 48.5508V54.5508ZM119.953 52.5165C121.72 51.1302 122.871 49.2208 123.522 47.0122L117.767 45.3159C117.397 46.5709 116.853 47.323 116.25 47.796L119.953 52.5165ZM123.514 47.04C124.152 44.9485 124.438 42.5689 124.438 39.957H118.438C118.438 42.1577 118.194 43.916 117.775 45.2882L123.514 47.04ZM124.438 39.957C124.438 36.0632 123.796 32.6264 122.235 29.9051L117.031 32.8917C117.875 34.3632 118.438 36.6321 118.438 39.957H124.438ZM122.235 29.9051C120.374 26.6634 117.164 25.2539 113.426 25.2539V31.2539C115.557 31.2539 116.485 31.9408 117.031 32.8917L122.235 29.9051ZM113.426 25.2539C110.989 25.2539 108.701 25.852 106.839 27.3193L110.552 32.0323C111.096 31.6038 111.962 31.2539 113.426 31.2539V25.2539ZM106.821 27.3332C105.08 28.7261 103.922 30.6279 103.234 32.8278L108.961 34.6175C109.367 33.3174 109.941 32.5213 110.569 32.0184L106.821 27.3332ZM103.226 32.8551C102.59 34.9592 102.305 37.344 102.305 39.957H108.305C108.305 37.7576 108.548 35.9861 108.969 34.5902L103.226 32.8551ZM165.242 23.332L163.264 25.5877L163.272 25.5948L165.242 23.332ZM168.25 37.9883L165.389 37.0864L165.384 37.1006L165.38 37.1148L168.25 37.9883ZM165.707 42.4727L163.48 40.4623L163.472 40.4709L163.465 40.4796L165.707 42.4727ZM161.031 45.5898L159.935 42.7973L159.926 42.8008L161.031 45.5898ZM150.832 46.7383V43.7383H147.832V46.7383H150.832ZM150.832 60V63H153.832V60H150.832ZM140.031 60H137.031V63H140.031V60ZM140.031 20.0234V17.0234H137.031V20.0234H140.031ZM150.832 28.7461V25.7461H147.832V28.7461H150.832ZM150.832 37.9336H147.832V40.9336H150.832V37.9336ZM155.562 37.4688L156.644 40.2671L156.671 40.2565L156.698 40.2454L155.562 37.4688ZM157.477 35.9102L154.99 34.2317L154.985 34.2389L154.98 34.2461L157.477 35.9102ZM157.094 29.9492L154.899 31.9944L154.911 32.007L154.923 32.0194L157.094 29.9492ZM153.867 23.0234C158.569 23.0234 161.517 24.0561 163.264 25.5877L167.22 21.0763C163.936 18.1966 159.301 17.0234 153.867 17.0234V23.0234ZM163.272 25.5948C165.015 27.1119 166.043 29.3419 166.043 32.7383H172.043C172.043 28.0045 170.537 23.9636 167.212 21.0693L163.272 25.5948ZM166.043 32.7383C166.043 34.2666 165.822 35.7117 165.389 37.0864L171.111 38.8902C171.735 36.9107 172.043 34.8558 172.043 32.7383H166.043ZM165.38 37.1148C164.999 38.3665 164.372 39.474 163.48 40.4623L167.934 44.483C169.411 42.8463 170.48 40.9642 171.12 38.8618L165.38 37.1148ZM163.465 40.4796C162.667 41.3771 161.53 42.1711 159.935 42.7973L162.127 48.3824C164.433 47.4773 166.414 46.1932 167.949 44.4657L163.465 40.4796ZM159.926 42.8008C158.449 43.386 156.463 43.7383 153.867 43.7383V49.7383C156.959 49.7383 159.749 49.3249 162.136 48.3789L159.926 42.8008ZM153.867 43.7383H150.832V49.7383H153.867V43.7383ZM147.832 46.7383V60H153.832V46.7383H147.832ZM150.832 57H140.031V63H150.832V57ZM143.031 60V20.0234H137.031V60H143.031ZM140.031 23.0234H153.867V17.0234H140.031V23.0234ZM153.621 25.7461H150.832V31.7461H153.621V25.7461ZM147.832 28.7461V37.9336H153.832V28.7461H147.832ZM150.832 40.9336H152.965V34.9336H150.832V40.9336ZM152.965 40.9336C154.234 40.9336 155.47 40.7208 156.644 40.2671L154.481 34.6704C154.051 34.8365 153.555 34.9336 152.965 34.9336V40.9336ZM156.698 40.2454C158.046 39.6939 159.162 38.791 159.973 37.5743L154.98 34.2461C154.844 34.4512 154.683 34.5873 154.427 34.6921L156.698 40.2454ZM159.963 37.5886C160.892 36.2119 161.215 34.5991 161.215 33.0117H155.215C155.215 33.8305 155.045 34.1501 154.99 34.2317L159.963 37.5886ZM161.215 33.0117C161.215 31.1165 160.63 29.3105 159.265 27.879L154.923 32.0194C155.052 32.1557 155.215 32.3913 155.215 33.0117H161.215ZM159.289 27.904C157.766 26.2697 155.657 25.7461 153.621 25.7461V31.7461C154.16 31.7461 154.494 31.8162 154.683 31.8816C154.854 31.9409 154.897 31.9919 154.899 31.9944L159.289 27.904ZM214.461 54.0391L217.072 55.5169L217.078 55.5064L214.461 54.0391ZM209.348 58.7422L207.964 56.0802L207.956 56.0847L209.348 58.7422ZM195.621 60.3008L195.264 63.2794L195.268 63.28L195.621 60.3008ZM191.793 59.5078L190.871 62.3625L190.891 62.369L190.911 62.3751L191.793 59.5078ZM188.102 58.0312H185.102V59.9336L186.822 60.7448L188.102 58.0312ZM188.102 48.4062L189.452 45.7275L185.102 43.5339V48.4062H188.102ZM194.664 50.9219L193.897 53.8222L193.908 53.8251L193.92 53.828L194.664 50.9219ZM203.277 51.3867L202.24 48.5717L202.228 48.5762L202.216 48.5809L203.277 51.3867ZM204.809 50.3477L207.209 52.1477L207.226 52.1243L207.243 52.1006L204.809 50.3477ZM204.562 47.0391L202.402 49.12L202.441 49.1608L202.482 49.2L204.562 47.0391ZM202.266 45.5078L200.924 48.1911L202.266 45.5078ZM198.082 43.5391L196.808 46.255L196.826 46.2637L196.845 46.2721L198.082 43.5391ZM194.062 41.4062L192.49 43.9612L192.499 43.9666L192.508 43.9718L194.062 41.4062ZM191 38.918L188.753 40.9057L188.773 40.9286L188.794 40.951L191 38.918ZM190.262 24.6992L187.838 22.9317L187.834 22.9362L190.262 24.6992ZM195.566 20.7617L194.491 17.9611L194.483 17.964L195.566 20.7617ZM210.469 20.3242L209.658 23.2126L209.665 23.2144L210.469 20.3242ZM216.102 22.3203L218.89 23.4266L219.947 20.7625L217.334 19.5851L216.102 22.3203ZM212.793 30.6602L211.545 33.3883L214.417 34.702L215.582 31.7664L212.793 30.6602ZM207.734 28.8008L206.91 31.6854L206.925 31.6896L206.94 31.6936L207.734 28.8008ZM200.816 28.4453L201.87 31.2543L201.893 31.2456L201.916 31.2365L200.816 28.4453ZM199.504 29.3477L197.118 27.5295L197.09 27.5663L197.063 27.6039L199.504 29.3477ZM199.805 32.3281L197.644 34.409L197.663 34.4294L197.683 34.4494L199.805 32.3281ZM202.238 33.9414L200.862 36.6073L200.888 36.6205L200.914 36.6332L202.238 33.9414ZM206.914 36.1562L205.654 38.8787L205.67 38.8861L205.686 38.8934L206.914 36.1562ZM211.891 39L210.096 41.4038L210.106 41.4116L210.117 41.4192L211.891 39ZM215.008 42.6367L212.325 43.9784L212.335 43.9991L212.346 44.0197L215.008 42.6367ZM213.102 47.8594C213.102 49.4985 212.695 51.055 211.844 52.5718L217.078 55.5064C218.415 53.1221 219.102 50.5588 219.102 47.8594H213.102ZM211.85 52.5613C211.089 53.9053 209.856 55.097 207.964 56.0802L210.731 61.4042C213.469 59.9811 215.645 58.0374 217.072 55.5169L211.85 52.5613ZM207.956 56.0847C206.227 56.9902 203.78 57.5469 200.434 57.5469V63.5469C204.379 63.5469 207.875 62.9004 210.74 61.3997L207.956 56.0847ZM200.434 57.5469C198.695 57.5469 197.213 57.4683 195.974 57.3216L195.268 63.28C196.8 63.4613 198.526 63.5469 200.434 63.5469V57.5469ZM195.979 57.3222C194.77 57.1771 193.671 56.9469 192.675 56.6405L190.911 62.3751C192.284 62.7978 193.738 63.0963 195.264 63.2794L195.979 57.3222ZM192.715 56.6531C191.667 56.3144 190.556 55.8717 189.381 55.3177L186.822 60.7448C188.199 61.394 189.549 61.9356 190.871 62.3625L192.715 56.6531ZM191.102 58.0312V48.4062H185.102V58.0312H191.102ZM186.751 51.085C189.095 52.2667 191.477 53.1822 193.897 53.8222L195.431 48.0216C193.44 47.4949 191.447 46.7333 189.452 45.7275L186.751 51.085ZM193.92 53.828C196.306 54.4393 198.557 54.7695 200.652 54.7695V48.7695C199.175 48.7695 197.434 48.5347 195.409 48.0157L193.92 53.828ZM200.652 54.7695C201.93 54.7695 203.202 54.6229 204.339 54.1926L202.216 48.5809C202.004 48.6609 201.526 48.7695 200.652 48.7695V54.7695ZM204.314 54.2017C205.365 53.8147 206.432 53.1835 207.209 52.1477L202.409 48.5477C202.467 48.4693 202.511 48.4427 202.495 48.4531C202.476 48.4659 202.401 48.5123 202.24 48.5717L204.314 54.2017ZM207.243 52.1006C207.954 51.1136 208.301 49.9755 208.301 48.7891H202.301C202.301 48.7959 202.3 48.7653 202.317 48.7128C202.334 48.6593 202.358 48.6176 202.374 48.5947L207.243 52.1006ZM208.301 48.7891C208.301 47.2938 207.732 45.9263 206.643 44.8781L202.482 49.2C202.458 49.1777 202.399 49.1098 202.352 48.9981C202.305 48.8873 202.301 48.8053 202.301 48.7891H208.301ZM206.723 44.9581C205.901 44.1036 204.781 43.4114 203.607 42.8245L200.924 48.1911C201.865 48.6616 202.276 48.9901 202.402 49.12L206.723 44.9581ZM203.607 42.8245C202.501 42.2715 201.068 41.5975 199.319 40.806L196.845 46.2721C198.56 47.0484 199.915 47.6868 200.924 48.1911L203.607 42.8245ZM199.356 40.8231C197.961 40.1686 196.717 39.5069 195.617 38.8407L192.508 43.9718C193.815 44.7639 195.25 45.5241 196.808 46.255L199.356 40.8231ZM195.635 38.8513C194.661 38.2519 193.859 37.5933 193.206 36.8849L188.794 40.951C189.855 42.102 191.094 43.1023 192.49 43.9612L195.635 38.8513ZM193.247 36.9302C192.673 36.2812 192.214 35.5106 191.879 34.5874L186.238 36.6313C186.815 38.2238 187.65 39.6589 188.753 40.9057L193.247 36.9302ZM191.879 34.5874C191.57 33.7347 191.375 32.6106 191.375 31.1523H185.375C185.375 33.1212 185.636 34.9684 186.238 36.6313L191.879 34.5874ZM191.375 31.1523C191.375 29.0851 191.873 27.5853 192.689 26.4622L187.834 22.9362C186.134 25.2767 185.375 28.079 185.375 31.1523H191.375ZM192.686 26.4667C193.583 25.2357 194.86 24.2523 196.649 23.5594L194.483 17.964C191.752 19.0212 189.492 20.6628 187.838 22.9317L192.686 26.4667ZM196.642 23.5623C198.512 22.8443 200.76 22.4492 203.441 22.4492V16.4492C200.18 16.4492 197.178 16.9291 194.491 17.9611L196.642 23.5623ZM203.441 22.4492C205.829 22.4492 207.892 22.7168 209.658 23.2126L211.28 17.4359C208.89 16.765 206.268 16.4492 203.441 16.4492V22.4492ZM209.665 23.2144C211.642 23.7646 213.373 24.3812 214.869 25.0555L217.334 19.5851C215.513 18.7646 213.488 18.0505 211.273 17.434L209.665 23.2144ZM213.313 21.214L210.004 29.5539L215.582 31.7664L218.89 23.4266L213.313 21.214ZM214.041 27.932C212.195 27.0875 210.357 26.4102 208.529 25.908L206.94 31.6936C208.429 32.1029 209.964 32.6651 211.545 33.3883L214.041 27.932ZM208.559 25.9162C206.687 25.3814 204.866 25.0898 203.113 25.0898V31.0898C204.205 31.0898 205.464 31.2723 206.91 31.6854L208.559 25.9162ZM203.113 25.0898C201.958 25.0898 200.786 25.2329 199.717 25.6541L201.916 31.2365C202.05 31.1838 202.409 31.0898 203.113 31.0898V25.0898ZM199.763 25.6363C198.804 25.9959 197.839 26.5831 197.118 27.5295L201.89 31.1658C201.858 31.2076 201.828 31.2404 201.802 31.2645C201.776 31.2885 201.758 31.302 201.75 31.3071C201.737 31.3162 201.768 31.2924 201.87 31.2543L199.763 25.6363ZM197.063 27.6039C196.408 28.52 196.094 29.5735 196.094 30.6602H202.094C202.094 30.6952 202.088 30.7662 202.06 30.8577C202.031 30.9505 201.988 31.0309 201.945 31.0914L197.063 27.6039ZM196.094 30.6602C196.094 32.1387 196.692 33.4204 197.644 34.409L201.966 30.2472C201.949 30.2297 201.989 30.2674 202.031 30.3657C202.075 30.4692 202.094 30.5763 202.094 30.6602H196.094ZM197.683 34.4494C198.506 35.2717 199.645 35.9788 200.862 36.6073L203.614 31.2755C202.571 30.7373 202.088 30.3689 201.926 30.2068L197.683 34.4494ZM200.914 36.6332C202.093 37.2134 203.676 37.963 205.654 38.8787L208.174 33.4338C206.215 32.5266 204.68 31.7996 203.563 31.2496L200.914 36.6332ZM205.686 38.8934C207.484 39.7 208.942 40.5427 210.096 41.4038L213.685 36.5962C212.104 35.4156 210.245 34.3625 208.142 33.4191L205.686 38.8934ZM210.117 41.4192C211.126 42.1592 211.841 43.011 212.325 43.9784L217.691 41.2951C216.753 39.4187 215.39 37.846 213.665 36.5808L210.117 41.4192ZM212.346 44.0197C212.794 44.8833 213.102 46.1171 213.102 47.8594H219.102C219.102 45.4454 218.68 43.1974 217.67 41.2537L212.346 44.0197ZM223.785 60H220.785V63H223.785V60ZM223.785 46.8477H226.785V41.7345L222.322 44.2288L223.785 46.8477ZM220.996 48.4062L218.393 49.8969L219.868 52.4734L222.46 51.0251L220.996 48.4062ZM217.113 41.625L215.581 39.046L213.043 40.554L214.51 43.1157L217.113 41.625ZM223.785 37.6602L225.318 40.2391L226.785 39.3671V37.6602H223.785ZM223.785 20.0234V17.0234H220.785V20.0234H223.785ZM234.586 20.0234H237.586V17.0234H234.586V20.0234ZM234.586 30.9883H231.586V36.382L236.168 33.537L234.586 30.9883ZM240.355 27.4062L242.921 25.8504L241.348 23.2586L238.773 24.8575L240.355 27.4062ZM244.402 34.0781L245.985 36.6265L248.507 35.0602L246.967 32.5223L244.402 34.0781ZM234.586 40.1758L233.003 37.6274L231.586 38.5076V40.1758H234.586ZM234.586 51.2773H231.586V54.2773H234.586V51.2773ZM249.98 51.2773H252.98V48.2773H249.98V51.2773ZM249.98 60V63H252.98V60H249.98ZM226.785 60V46.8477H220.785V60H226.785ZM222.322 44.2288L219.533 45.7874L222.46 51.0251L225.249 49.4665L222.322 44.2288ZM223.6 46.9156L219.717 40.1343L214.51 43.1157L218.393 49.8969L223.6 46.9156ZM218.646 44.204L225.318 40.2391L222.253 35.0812L215.581 39.046L218.646 44.204ZM226.785 37.6602V20.0234H220.785V37.6602H226.785ZM223.785 23.0234H234.586V17.0234H223.785V23.0234ZM231.586 20.0234V30.9883H237.586V20.0234H231.586ZM236.168 33.537L241.938 29.955L238.773 24.8575L233.004 28.4395L236.168 33.537ZM237.79 28.9621L241.837 35.634L246.967 32.5223L242.921 25.8504L237.79 28.9621ZM242.819 31.5298L233.003 37.6274L236.169 42.7242L245.985 36.6265L242.819 31.5298ZM231.586 40.1758V51.2773H237.586V40.1758H231.586ZM234.586 54.2773H249.98V48.2773H234.586V54.2773ZM246.98 51.2773V60H252.98V51.2773H246.98ZM249.98 57H223.785V63H249.98V57ZM292.691 48.3789L289.814 47.5302L289.81 47.5437L292.691 48.3789ZM283.203 59.0977L284.299 61.8902L284.308 61.8867L284.317 61.8831L283.203 59.0977ZM265.648 59.0977L264.527 61.8802L264.54 61.8852L264.552 61.8902L265.648 59.0977ZM259.605 54.9141L257.342 56.8832L257.347 56.8888L257.352 56.8944L259.605 54.9141ZM256.98 29.0742L254.244 27.8438L254.241 27.8513L256.98 29.0742ZM263.379 21.9375L264.888 24.5301L264.901 24.5229L263.379 21.9375ZM285.527 21.9375L283.991 24.5144L283.998 24.5186L285.527 21.9375ZM291.816 29.1016L289.062 30.2912L291.816 29.1016ZM267.125 46.1641L264.264 47.0675L267.125 46.1641ZM279.102 50.1562L277.25 47.796L277.241 47.803L277.232 47.8101L279.102 50.1562ZM281.645 46.1641L278.775 45.2882L278.771 45.302L278.767 45.3159L281.645 46.1641ZM280.633 31.3984L278.031 32.8917L280.633 31.3984ZM269.695 29.6758L267.839 27.3193L267.83 27.3262L267.821 27.3332L269.695 29.6758ZM267.098 33.7227L264.234 32.8278L264.23 32.8415L264.226 32.8551L267.098 33.7227ZM287.742 8.07422H290.742V5.07422H287.742V8.07422ZM287.742 8.64844L289.624 10.9847L290.742 10.0841V8.64844H287.742ZM285.227 10.5898L286.999 13.0104L287.013 13.0002L287.027 12.9898L285.227 10.5898ZM281.973 12.9414L283.709 15.3879L283.716 15.3826L281.973 12.9414ZM278.664 15.2383L276.981 12.7552L276.971 12.7619L276.961 12.7686L278.664 15.2383ZM275.93 17.043V20.043H276.783L277.509 19.5938L275.93 17.043ZM268.82 17.043H265.82V20.043H268.82V17.043ZM268.82 16.25L266.614 14.2176L265.82 15.0789V16.25H268.82ZM271.117 13.7891L273.301 15.8465L273.31 15.8361L273.32 15.8256L271.117 13.7891ZM276.039 8.07422V5.07422H274.499L273.601 6.3255L276.039 8.07422ZM290.812 39.957C290.812 42.7969 290.468 45.3132 289.814 47.5302L295.569 49.2276C296.41 46.3769 296.812 43.2786 296.812 39.957H290.812ZM289.81 47.5437C289.19 49.6839 288.235 51.4618 286.972 52.9306L291.521 56.8428C293.393 54.6658 294.735 52.1052 295.573 49.2141L289.81 47.5437ZM286.972 52.9306C285.75 54.3515 284.149 55.4883 282.089 56.3122L284.317 61.8831C287.179 60.7382 289.607 59.0678 291.521 56.8428L286.972 52.9306ZM282.107 56.3051C280.082 57.1002 277.529 57.5469 274.371 57.5469V63.5469C278.068 63.5469 281.403 63.0274 284.299 61.8902L282.107 56.3051ZM274.371 57.5469C271.296 57.5469 268.777 57.1028 266.745 56.3051L264.552 61.8902C267.442 63.0248 270.738 63.5469 274.371 63.5469V57.5469ZM266.77 56.3151C264.719 55.4888 263.106 54.3533 261.859 52.9337L257.352 56.8944C259.276 59.0842 261.692 60.7377 264.527 61.8802L266.77 56.3151ZM261.869 52.945C260.587 51.4715 259.605 49.6782 258.95 47.5112L253.206 49.2466C254.083 52.1473 255.452 54.7108 257.342 56.8832L261.869 52.945ZM258.95 47.5112C258.283 45.3035 257.93 42.7763 257.93 39.9023H251.93C251.93 43.2628 252.342 46.3866 253.206 49.2466L258.95 47.5112ZM257.93 39.9023C257.93 36.0695 258.56 32.8944 259.72 30.2972L254.241 27.8513C252.666 31.3791 251.93 35.4227 251.93 39.9023H257.93ZM259.717 30.3046C260.849 27.7865 262.557 25.8876 264.888 24.53L261.869 19.345C258.44 21.3416 255.883 24.2005 254.244 27.8438L259.717 30.3046ZM264.901 24.5229C267.188 23.1765 270.3 22.3945 274.426 22.3945V16.3945C269.583 16.3945 265.33 17.3079 261.857 19.3521L264.901 24.5229ZM274.426 22.3945C278.637 22.3945 281.755 23.1813 283.991 24.5143L287.064 19.3607C283.612 17.3031 279.329 16.3945 274.426 16.3945V22.3945ZM283.998 24.5186C286.31 25.888 287.98 27.7865 289.062 30.2912L294.57 27.9119C292.991 24.2552 290.468 21.3776 287.056 19.3564L283.998 24.5186ZM289.062 30.2912C290.197 32.9181 290.812 36.1152 290.812 39.957H296.812C296.812 35.4864 296.097 31.4465 294.57 27.9119L289.062 30.2912ZM263.305 39.957C263.305 42.5765 263.601 44.9661 264.264 47.0675L269.986 45.2607C269.556 43.8985 269.305 42.1501 269.305 39.957H263.305ZM264.264 47.0675C264.955 49.2549 266.12 51.1428 267.871 52.5165L271.575 47.796C270.955 47.3103 270.389 46.5368 269.986 45.2607L264.264 47.0675ZM267.871 52.5165C269.713 53.9618 271.97 54.5508 274.371 54.5508V48.5508C272.944 48.5508 272.102 48.2101 271.575 47.796L267.871 52.5165ZM274.371 54.5508C276.812 54.5508 279.12 53.9774 280.971 52.5024L277.232 47.8101C276.75 48.1945 275.904 48.5508 274.371 48.5508V54.5508ZM280.953 52.5165C282.72 51.1302 283.871 49.2208 284.522 47.0122L278.767 45.3159C278.397 46.5709 277.853 47.323 277.25 47.796L280.953 52.5165ZM284.514 47.04C285.152 44.9485 285.438 42.5689 285.438 39.957H279.438C279.438 42.1577 279.194 43.916 278.775 45.2882L284.514 47.04ZM285.438 39.957C285.438 36.0632 284.796 32.6264 283.235 29.9051L278.031 32.8917C278.875 34.3632 279.438 36.6321 279.438 39.957H285.438ZM283.235 29.9051C281.374 26.6634 278.164 25.2539 274.426 25.2539V31.2539C276.557 31.2539 277.485 31.9408 278.031 32.8917L283.235 29.9051ZM274.426 25.2539C271.989 25.2539 269.701 25.852 267.839 27.3193L271.552 32.0323C272.096 31.6038 272.962 31.2539 274.426 31.2539V25.2539ZM267.821 27.3332C266.08 28.7261 264.922 30.6279 264.234 32.8278L269.961 34.6175C270.367 33.3174 270.941 32.5213 271.569 32.0184L267.821 27.3332ZM264.226 32.8551C263.59 34.9592 263.305 37.344 263.305 39.957H269.305C269.305 37.7576 269.548 35.9861 269.969 34.5902L264.226 32.8551ZM284.742 8.07422V8.64844H290.742V8.07422H284.742ZM285.86 6.31218C285.241 6.81113 284.432 7.43562 283.427 8.18984L287.027 12.9898C288.063 12.2128 288.931 11.543 289.624 10.9847L285.86 6.31218ZM283.454 8.16926C282.444 8.90899 281.369 9.68594 280.229 10.5002L283.716 15.3826C284.873 14.5562 285.967 13.7655 286.999 13.0104L283.454 8.16926ZM280.236 10.4949C279.123 11.2854 278.037 12.0388 276.981 12.7552L280.348 17.7214C281.442 16.9795 282.562 16.2016 283.709 15.3879L280.236 10.4949ZM276.961 12.7686C275.929 13.4805 275.061 14.0526 274.351 14.4922L277.509 19.5938C278.33 19.0854 279.285 18.4544 280.367 17.7079L276.961 12.7686ZM275.93 14.043H268.82V20.043H275.93V14.043ZM271.82 17.043V16.25H265.82V17.043H271.82ZM271.027 18.2824C271.655 17.6006 272.412 16.789 273.301 15.8465L268.934 11.7317C268.035 12.685 267.262 13.514 266.614 14.2176L271.027 18.2824ZM273.32 15.8256C274.226 14.8457 275.132 13.8476 276.037 12.8316L271.557 8.84032C270.676 9.82944 269.795 10.8002 268.914 11.7525L273.32 15.8256ZM276.037 12.8316C276.981 11.7722 277.799 10.7682 278.477 9.82294L273.601 6.3255C273.076 7.05731 272.4 7.89447 271.557 8.84032L276.037 12.8316ZM276.039 11.0742H287.742V5.07422H276.039V11.0742ZM354.051 20.0234L356.964 20.7407L357.879 17.0234H354.051V20.0234ZM344.207 60V63H346.558L347.12 60.7173L344.207 60ZM331.438 60L328.507 60.644L329.025 63H331.438V60ZM327.609 42.582L330.539 41.9381L330.538 41.9312L327.609 42.582ZM327.254 40.9141L324.305 41.4628L324.311 41.4958L324.318 41.5287L327.254 40.9141ZM326.734 38.2344L323.783 38.771L323.787 38.7969L323.793 38.8227L326.734 38.2344ZM326.215 35.2812L323.247 35.7209L323.252 35.7522L323.257 35.7835L326.215 35.2812ZM325.887 32.793L328.869 32.4705H322.904L325.887 32.793ZM325.531 35.2812L328.489 35.7835L328.49 35.7744L325.531 35.2812ZM324.984 38.2344L322.043 37.646L322.037 37.6718L322.033 37.6977L324.984 38.2344ZM324.438 40.9141L321.515 40.2345L321.508 40.2669L321.501 40.2995L324.438 40.9141ZM324.082 42.582L321.153 41.9312L321.153 41.9337L324.082 42.582ZM320.227 60V63H322.635L323.156 60.6484L320.227 60ZM307.457 60L304.545 60.721L305.109 63H307.457V60ZM297.559 20.0234V17.0234H293.725L294.647 20.7445L297.559 20.0234ZM307.977 20.0234L310.908 19.3875L310.396 17.0234H307.977V20.0234ZM312.324 40.0664L309.392 40.7024L309.394 40.7098L309.396 40.7172L312.324 40.0664ZM312.762 42.1719L309.82 42.7602L309.827 42.7947L309.835 42.829L312.762 42.1719ZM313.363 45.125L310.414 45.6748L310.42 45.7039L310.426 45.7328L313.363 45.125ZM314.348 50.6484L311.366 50.9797L317.323 51.0324L314.348 50.6484ZM314.922 46.793L311.968 46.2695L311.965 46.2876L311.962 46.3059L314.922 46.793ZM315.742 42.418L312.805 41.809L312.802 41.8228L312.799 41.8366L315.742 42.418ZM317.328 35.1445L320.239 35.8721L320.244 35.8491L320.25 35.8261L317.328 35.1445ZM320.855 20.0234V17.0234H318.475L317.934 19.3419L320.855 20.0234ZM330.863 20.0234L333.789 19.362L333.261 17.0234H330.863V20.0234ZM334.281 35.1445L331.355 35.806L331.357 35.815L331.359 35.8241L334.281 35.1445ZM334.965 38.2617L332.03 38.8818L332.035 38.9061L332.04 38.9302L334.965 38.2617ZM335.84 42.418L332.895 42.9925L332.899 43.0098L332.902 43.027L335.84 42.418ZM336.688 46.8477L333.732 47.3648L333.734 47.3711L336.688 46.8477ZM337.262 50.6484L334.282 50.9961L340.24 51.0059L337.262 50.6484ZM337.809 47.2031L340.759 47.7466L340.76 47.7398L337.809 47.2031ZM338.574 43.1289L335.636 42.5251L335.632 42.5407L335.629 42.5563L338.574 43.1289ZM339.203 40.1211L336.273 39.4754L336.271 39.4871L339.203 40.1211ZM343.633 20.0234V17.0234H341.222L340.703 19.3777L343.633 20.0234ZM351.138 19.3061L341.294 59.2827L347.12 60.7173L356.964 20.7407L351.138 19.3061ZM344.207 57H331.438V63H344.207V57ZM334.368 59.356L330.539 41.9381L324.679 43.226L328.507 60.644L334.368 59.356ZM330.538 41.9312C330.469 41.623 330.354 41.0831 330.19 40.2995L324.318 41.5287C324.482 42.3127 324.603 42.8848 324.681 43.2328L330.538 41.9312ZM330.203 40.3653C330.054 39.5652 329.879 38.6584 329.676 37.646L323.793 38.8227C323.991 39.8156 324.162 40.6952 324.305 41.4628L330.203 40.3653ZM329.686 37.6977C329.506 36.7061 329.335 35.7332 329.173 34.779L323.257 35.7835C323.423 36.7616 323.598 37.7574 323.783 38.771L329.686 37.6977ZM329.182 34.8416C329.04 33.88 328.937 33.0924 328.869 32.4705L322.904 33.1154C322.983 33.8425 323.098 34.7137 323.247 35.7209L329.182 34.8416ZM322.904 32.4705C322.839 33.0682 322.731 33.8367 322.572 34.7881L328.49 35.7744C328.66 34.7571 328.788 33.8667 328.869 33.1154L322.904 32.4705ZM322.574 34.779C322.415 35.7152 322.238 36.6708 322.043 37.646L327.926 38.8227C328.132 37.7927 328.32 36.7796 328.489 35.7835L322.574 34.779ZM322.033 37.6977C321.857 38.6644 321.684 39.5085 321.515 40.2345L327.36 41.5936C327.555 40.7519 327.747 39.8096 327.936 38.771L322.033 37.6977ZM321.501 40.2995C321.337 41.0831 321.222 41.623 321.153 41.9312L327.011 43.2328C327.088 42.8848 327.21 42.3127 327.374 41.5287L321.501 40.2995ZM321.153 41.9337L317.297 59.3516L323.156 60.6484L327.011 43.2304L321.153 41.9337ZM320.227 57H307.457V63H320.227V57ZM310.369 59.279L300.471 19.3024L294.647 20.7445L304.545 60.721L310.369 59.279ZM297.559 23.0234H307.977V17.0234H297.559V23.0234ZM305.045 20.6594L309.392 40.7024L315.256 39.4304L310.908 19.3875L305.045 20.6594ZM309.396 40.7172C309.498 41.1781 309.639 41.8554 309.82 42.7602L315.703 41.5835C315.52 40.6654 315.369 39.9391 315.253 39.4156L309.396 40.7172ZM309.835 42.829C310.026 43.6805 310.219 44.6285 310.414 45.6748L316.312 44.5752C316.107 43.4704 315.899 42.4497 315.689 41.5148L309.835 42.829ZM310.426 45.7328C310.64 46.7712 310.837 47.7715 311.015 48.7338L316.915 47.6412C316.728 46.6348 316.524 45.5934 316.301 44.5172L310.426 45.7328ZM311.015 48.7338C311.19 49.6792 311.304 50.422 311.366 50.9797L317.329 50.3171C317.245 49.5623 317.104 48.6646 316.915 47.6412L311.015 48.7338ZM317.323 51.0324C317.463 49.9446 317.649 48.6948 317.882 47.2801L311.962 46.3059C311.721 47.7713 311.524 49.0919 311.372 50.2645L317.323 51.0324ZM317.876 47.3165C318.128 45.8962 318.397 44.4572 318.685 42.9993L312.799 41.8366C312.504 43.3319 312.227 44.8095 311.968 46.2695L317.876 47.3165ZM318.68 43.027C318.988 41.5377 319.279 40.1588 319.551 38.8903L313.684 37.6331C313.409 38.9167 313.116 40.3087 312.805 41.809L318.68 43.027ZM319.551 38.8903C319.82 37.6309 320.05 36.6283 320.239 35.8721L314.418 34.4169C314.206 35.265 313.961 36.3405 313.684 37.6331L319.551 38.8903ZM320.25 35.8261L323.777 20.705L317.934 19.3419L314.407 34.463L320.25 35.8261ZM320.855 23.0234H330.863V17.0234H320.855V23.0234ZM327.937 20.6849L331.355 35.806L337.207 34.4831L333.789 19.362L327.937 20.6849ZM331.359 35.8241C331.535 36.5797 331.758 37.5966 332.03 38.8818L337.9 37.6416C337.625 36.3383 337.392 35.2771 337.203 34.465L331.359 35.8241ZM332.04 38.9302C332.324 40.1705 332.609 41.5242 332.895 42.9925L338.784 41.8434C338.487 40.3222 338.189 38.905 337.889 37.5932L332.04 38.9302ZM332.902 43.027C333.206 44.4922 333.483 45.9381 333.732 47.3648L339.643 46.3305C339.382 44.8405 339.093 43.3333 338.777 41.809L332.902 43.027ZM333.734 47.3711C333.982 48.7705 334.163 49.9766 334.282 50.9961L340.242 50.3008C340.105 49.1328 339.904 47.805 339.641 46.3242L333.734 47.3711ZM340.24 51.0059C340.339 50.1802 340.51 49.0991 340.759 47.7466L334.858 46.6596C334.597 48.078 334.403 49.2937 334.283 50.291L340.24 51.0059ZM340.76 47.7398C341.013 46.3473 341.266 45.0013 341.519 43.7015L335.629 42.5563C335.372 43.8815 335.114 45.2516 334.857 46.6665L340.76 47.7398ZM341.513 43.7327C341.786 42.4044 341.993 41.414 342.135 40.7551L336.271 39.4871C336.122 40.1771 335.91 41.1919 335.636 42.5251L341.513 43.7327ZM342.133 40.7668L346.562 20.6692L340.703 19.3777L336.273 39.4754L342.133 40.7668ZM343.633 23.0234H354.051V17.0234H343.633V23.0234Z" fill="white"/>
</g>
<path d="M349.424 60.5621C349.735 60.1053 349.616 59.4833 349.159 59.1729L341.716 54.1143C341.259 53.8039 340.637 53.9225 340.326 54.3793C340.016 54.8361 340.135 55.458 340.591 55.7685L347.208 60.265L342.712 66.8817C342.401 67.3385 342.52 67.9605 342.977 68.2709C343.433 68.5813 344.055 68.4627 344.366 68.0059L349.424 60.5621ZM32.2061 59.5466C28.5355 66.7627 26.7398 73.0524 27.0304 78.4244C27.3243 83.8563 29.7478 88.2618 34.2943 91.6376C38.7964 94.9805 45.3487 97.2941 53.9119 98.7085C62.4887 100.125 73.1683 100.653 85.9981 100.36C137.284 99.1892 223.517 84.8807 348.785 60.9823L348.41 59.0177C223.092 82.9256 137.038 97.1943 85.9525 98.3605C73.1893 98.6519 62.6457 98.1239 54.2378 96.7352C45.8165 95.3443 39.6228 93.103 35.4866 90.0319C31.3948 86.9937 29.2877 83.1262 29.0275 78.3163C28.7641 73.4466 30.3911 67.5259 33.9887 60.4534L32.2061 59.5466Z" fill="#F18F01"/>
<defs>
<filter id="filter0_d_64_3" x="17.4961" y="8.07422" width="340.555" height="60.4727" filterUnits="userSpaceOnUse" color-interpolation-filters="sRGB">
<feFlood flood-opacity="0" result="BackgroundImageFix"/>
<feColorMatrix in="SourceAlpha" type="matrix" values="0 0 0 0 0 0 0 0 0 0 0 0 0 0 0 0 0 0 127 0" result="hardAlpha"/>
<feOffset dy="4"/>
<feGaussianBlur stdDeviation="2"/>
<feComposite in2="hardAlpha" operator="out"/>
<feColorMatrix type="matrix" values="0 0 0 0 0 0 0 0 0 0 0 0 0 0 0 0 0 0 0.25 0"/>
<feBlend mode="normal" in2="BackgroundImageFix" result="effect1_dropShadow_64_3"/>
<feBlend mode="normal" in="SourceGraphic" in2="effect1_dropShadow_64_3" result="shape"/>
</filter>
</defs>
</svg>
