<svg width="375" height="76" viewBox="0 0 375 76" fill="none" xmlns="http://www.w3.org/2000/svg">
<g filter="url(#filter0_d_64_4)">
<path d="M125.168 26H120.539V12.6523H116.355V8.86719H129.34V12.6523H125.168V26ZM137.402 8.86719C138.957 8.86719 140.25 9.05859 141.281 9.44141C142.312 9.81641 143.086 10.3789 143.602 11.1289C144.125 11.8789 144.387 12.8125 144.387 13.9297C144.387 14.625 144.27 15.2578 144.035 15.8281C143.801 16.3984 143.465 16.9102 143.027 17.3633C142.598 17.8086 142.082 18.1992 141.48 18.5352L146.473 26H141.223L137.59 19.7656H136.418V26H131.789V8.86719H137.402ZM137.332 12.3711H136.418V16.2852H137.285C137.996 16.2852 138.578 16.1289 139.031 15.8164C139.484 15.5039 139.711 14.9453 139.711 14.1406C139.711 13.5859 139.523 13.1523 139.148 12.8398C138.773 12.5273 138.168 12.3711 137.332 12.3711ZM164.062 17.4102C164.062 18.7305 163.902 19.9336 163.582 21.0195C163.27 22.0977 162.777 23.0273 162.105 23.8086C161.434 24.5898 160.57 25.1914 159.516 25.6133C158.461 26.0273 157.199 26.2344 155.73 26.2344C154.293 26.2344 153.047 26.0273 151.992 25.6133C150.945 25.1914 150.082 24.5938 149.402 23.8203C148.723 23.0391 148.219 22.1055 147.891 21.0195C147.562 19.9336 147.398 18.7227 147.398 17.3867C147.398 15.6055 147.691 14.0586 148.277 12.7461C148.871 11.4258 149.785 10.4062 151.02 9.6875C152.254 8.96094 153.832 8.59766 155.754 8.59766C157.707 8.59766 159.293 8.96094 160.512 9.6875C161.738 10.4141 162.637 11.4375 163.207 12.7578C163.777 14.0781 164.062 15.6289 164.062 17.4102ZM152.273 17.4102C152.273 18.4414 152.391 19.3281 152.625 20.0703C152.859 20.8125 153.23 21.3828 153.738 21.7812C154.246 22.1797 154.91 22.3789 155.73 22.3789C156.582 22.3789 157.258 22.1797 157.758 21.7812C158.266 21.3828 158.629 20.8125 158.848 20.0703C159.074 19.3281 159.188 18.4414 159.188 17.4102C159.188 15.8633 158.93 14.6406 158.414 13.7422C157.898 12.8438 157.012 12.3945 155.754 12.3945C154.918 12.3945 154.242 12.5977 153.727 13.0039C153.219 13.4102 152.848 13.9883 152.613 14.7383C152.387 15.4883 152.273 16.3789 152.273 17.4102ZM173.086 8.86719C175.258 8.86719 176.883 9.33984 177.961 10.2852C179.047 11.2305 179.59 12.5742 179.59 14.3164C179.59 15.0977 179.477 15.8477 179.25 16.5664C179.031 17.2852 178.668 17.9258 178.16 18.4883C177.66 19.0508 176.992 19.4961 176.156 19.8242C175.328 20.1523 174.305 20.3164 173.086 20.3164H171.785V26H167.156V8.86719H173.086ZM172.98 12.6055H171.785V16.543H172.699C173.098 16.543 173.469 16.4766 173.812 16.3438C174.156 16.2031 174.43 15.9805 174.633 15.6758C174.844 15.3633 174.949 14.9492 174.949 14.4336C174.949 13.8945 174.789 13.457 174.469 13.1211C174.148 12.7773 173.652 12.6055 172.98 12.6055ZM199.758 20.7969C199.758 21.7266 199.523 22.6094 199.055 23.4453C198.586 24.2734 197.855 24.9453 196.863 25.4609C195.879 25.9766 194.605 26.2344 193.043 26.2344C192.262 26.2344 191.574 26.1992 190.98 26.1289C190.395 26.0586 189.848 25.9453 189.34 25.7891C188.832 25.625 188.305 25.4141 187.758 25.1562V21.0312C188.688 21.5 189.625 21.8594 190.57 22.1094C191.516 22.3516 192.371 22.4727 193.137 22.4727C193.598 22.4727 193.973 22.418 194.262 22.3086C194.559 22.1992 194.777 22.0508 194.918 21.8633C195.059 21.668 195.129 21.4453 195.129 21.1953C195.129 20.8984 195.023 20.6484 194.812 20.4453C194.609 20.2344 194.281 20.0156 193.828 19.7891C193.375 19.5625 192.777 19.2812 192.035 18.9453C191.402 18.6484 190.828 18.3438 190.312 18.0312C189.805 17.7188 189.367 17.3633 189 16.9648C188.641 16.5586 188.363 16.0859 188.168 15.5469C187.973 15.0078 187.875 14.3711 187.875 13.6367C187.875 12.5352 188.145 11.6133 188.684 10.8711C189.23 10.1211 189.988 9.55859 190.957 9.18359C191.934 8.80859 193.059 8.62109 194.332 8.62109C195.449 8.62109 196.453 8.74609 197.344 8.99609C198.242 9.24609 199.047 9.53125 199.758 9.85156L198.34 13.4258C197.605 13.0898 196.883 12.8242 196.172 12.6289C195.461 12.4258 194.801 12.3242 194.191 12.3242C193.793 12.3242 193.465 12.375 193.207 12.4766C192.957 12.5703 192.77 12.6992 192.645 12.8633C192.527 13.0273 192.469 13.2148 192.469 13.4258C192.469 13.6914 192.57 13.9297 192.773 14.1406C192.984 14.3516 193.332 14.582 193.816 14.832C194.309 15.0742 194.977 15.3906 195.82 15.7812C196.656 16.1562 197.367 16.5625 197.953 17C198.539 17.4297 198.984 17.9492 199.289 18.5586C199.602 19.1602 199.758 19.9062 199.758 20.7969ZM203.051 26V20.3633L201.855 21.0312L200.191 18.125L203.051 16.4258V8.86719H207.68V13.5664L210.152 12.0312L211.887 14.8906L207.68 17.5039V22.2617H214.277V26H203.051ZM233.062 17.4102C233.062 18.7305 232.902 19.9336 232.582 21.0195C232.27 22.0977 231.777 23.0273 231.105 23.8086C230.434 24.5898 229.57 25.1914 228.516 25.6133C227.461 26.0273 226.199 26.2344 224.73 26.2344C223.293 26.2344 222.047 26.0273 220.992 25.6133C219.945 25.1914 219.082 24.5938 218.402 23.8203C217.723 23.0391 217.219 22.1055 216.891 21.0195C216.562 19.9336 216.398 18.7227 216.398 17.3867C216.398 15.6055 216.691 14.0586 217.277 12.7461C217.871 11.4258 218.785 10.4062 220.02 9.6875C221.254 8.96094 222.832 8.59766 224.754 8.59766C226.707 8.59766 228.293 8.96094 229.512 9.6875C230.738 10.4141 231.637 11.4375 232.207 12.7578C232.777 14.0781 233.062 15.6289 233.062 17.4102ZM221.273 17.4102C221.273 18.4414 221.391 19.3281 221.625 20.0703C221.859 20.8125 222.23 21.3828 222.738 21.7812C223.246 22.1797 223.91 22.3789 224.73 22.3789C225.582 22.3789 226.258 22.1797 226.758 21.7812C227.266 21.3828 227.629 20.8125 227.848 20.0703C228.074 19.3281 228.188 18.4414 228.188 17.4102C228.188 15.8633 227.93 14.6406 227.414 13.7422C226.898 12.8438 226.012 12.3945 224.754 12.3945C223.918 12.3945 223.242 12.5977 222.727 13.0039C222.219 13.4102 221.848 13.9883 221.613 14.7383C221.387 15.4883 221.273 16.3789 221.273 17.4102ZM230.461 3.74609V3.99219C230.18 4.21875 229.82 4.49609 229.383 4.82422C228.945 5.14453 228.48 5.48047 227.988 5.83203C227.504 6.17578 227.031 6.50391 226.57 6.81641C226.117 7.12891 225.727 7.38672 225.398 7.58984H222.352V7.25C222.625 6.95313 222.953 6.60156 223.336 6.19531C223.719 5.78125 224.102 5.35938 224.484 4.92969C224.867 4.5 225.188 4.10547 225.445 3.74609H230.461ZM258.879 8.86719L254.66 26H249.188L247.547 18.5352C247.516 18.3945 247.465 18.1562 247.395 17.8203C247.332 17.4844 247.258 17.1016 247.172 16.6719C247.094 16.2422 247.02 15.8203 246.949 15.4062C246.887 14.9844 246.84 14.6289 246.809 14.3398C246.777 14.6289 246.727 14.9844 246.656 15.4062C246.586 15.8203 246.508 16.2422 246.422 16.6719C246.344 17.1016 246.266 17.4844 246.188 17.8203C246.117 18.1562 246.066 18.3945 246.035 18.5352L244.383 26H238.91L234.668 8.86719H239.133L240.996 17.457C241.043 17.668 241.105 17.9688 241.184 18.3594C241.27 18.7422 241.355 19.1641 241.441 19.625C241.535 20.0781 241.621 20.5156 241.699 20.9375C241.777 21.3594 241.832 21.7109 241.863 21.9922C241.926 21.5078 242.008 20.957 242.109 20.3398C242.219 19.7227 242.336 19.0977 242.461 18.4648C242.594 17.8242 242.719 17.2305 242.836 16.6836C242.953 16.1367 243.055 15.6914 243.141 15.3477L244.652 8.86719H248.941L250.406 15.3477C250.484 15.6836 250.582 16.1289 250.699 16.6836C250.824 17.2305 250.949 17.8242 251.074 18.4648C251.207 19.1055 251.328 19.7383 251.438 20.3633C251.547 20.9805 251.629 21.5234 251.684 21.9922C251.73 21.6016 251.809 21.1094 251.918 20.5156C252.027 19.9141 252.137 19.332 252.246 18.7695C252.363 18.1992 252.453 17.7695 252.516 17.4805L254.414 8.86719H258.879Z" fill="#F18F01"/>
<path d="M125.168 26V27H126.168V26H125.168ZM120.539 26H119.539V27H120.539V26ZM120.539 12.6523H121.539V11.6523H120.539V12.6523ZM116.355 12.6523H115.355V13.6523H116.355V12.6523ZM116.355 8.86719V7.86719H115.355V8.86719H116.355ZM129.34 8.86719H130.34V7.86719H129.34V8.86719ZM129.34 12.6523V13.6523H130.34V12.6523H129.34ZM125.168 12.6523V11.6523H124.168V12.6523H125.168ZM125.168 25H120.539V27H125.168V25ZM121.539 26V12.6523H119.539V26H121.539ZM120.539 11.6523H116.355V13.6523H120.539V11.6523ZM117.355 12.6523V8.86719H115.355V12.6523H117.355ZM116.355 9.86719H129.34V7.86719H116.355V9.86719ZM128.34 8.86719V12.6523H130.34V8.86719H128.34ZM129.34 11.6523H125.168V13.6523H129.34V11.6523ZM124.168 12.6523V26H126.168V12.6523H124.168ZM141.281 9.44141L140.933 10.3789L140.94 10.3812L141.281 9.44141ZM143.602 11.1289L142.777 11.6954L142.782 11.7012L143.602 11.1289ZM143.027 17.3633L142.308 16.6687L142.308 16.6689L143.027 17.3633ZM141.48 18.5352L140.993 17.6621L140.047 18.1904L140.649 19.0911L141.48 18.5352ZM146.473 26V27H148.344L147.304 25.4441L146.473 26ZM141.223 26L140.359 26.5035L140.648 27H141.223V26ZM137.59 19.7656L138.454 19.2622L138.165 18.7656H137.59V19.7656ZM136.418 19.7656V18.7656H135.418V19.7656H136.418ZM136.418 26V27H137.418V26H136.418ZM131.789 26H130.789V27H131.789V26ZM131.789 8.86719V7.86719H130.789V8.86719H131.789ZM136.418 12.3711V11.3711H135.418V12.3711H136.418ZM136.418 16.2852H135.418V17.2852H136.418V16.2852ZM137.402 9.86719C138.883 9.86719 140.049 10.0507 140.933 10.3789L141.629 8.50391C140.451 8.06651 139.031 7.86719 137.402 7.86719V9.86719ZM140.94 10.3812C141.816 10.7 142.402 11.1499 142.778 11.6954L144.426 10.5624C143.769 9.60795 142.809 8.93284 141.623 8.50161L140.94 10.3812ZM142.782 11.7012C143.164 12.2492 143.387 12.9712 143.387 13.9297H145.387C145.387 12.6538 145.086 11.5086 144.422 10.5566L142.782 11.7012ZM143.387 13.9297C143.387 14.5112 143.289 15.0127 143.11 15.448L144.96 16.2082C145.25 15.5029 145.387 14.7388 145.387 13.9297H143.387ZM143.11 15.448C142.925 15.8989 142.66 16.3045 142.308 16.6687L143.747 18.0579C144.27 17.5159 144.677 16.898 144.96 16.2082L143.11 15.448ZM142.308 16.6689C141.953 17.0361 141.518 17.3686 140.993 17.6621L141.968 19.4082C142.646 19.0298 143.242 18.5811 143.747 18.0576L142.308 16.6689ZM140.649 19.0911L145.641 26.5559L147.304 25.4441L142.312 17.9793L140.649 19.0911ZM146.473 25H141.223V27H146.473V25ZM142.087 25.4965L138.454 19.2622L136.726 20.2691L140.359 26.5035L142.087 25.4965ZM137.59 18.7656H136.418V20.7656H137.59V18.7656ZM135.418 19.7656V26H137.418V19.7656H135.418ZM136.418 25H131.789V27H136.418V25ZM132.789 26V8.86719H130.789V26H132.789ZM131.789 9.86719H137.402V7.86719H131.789V9.86719ZM137.332 11.3711H136.418V13.3711H137.332V11.3711ZM135.418 12.3711V16.2852H137.418V12.3711H135.418ZM136.418 17.2852H137.285V15.2852H136.418V17.2852ZM137.285 17.2852C138.14 17.2852 138.936 17.0966 139.599 16.6396L138.464 14.9932C138.22 15.1612 137.852 15.2852 137.285 15.2852V17.2852ZM139.599 16.6396C140.433 16.0645 140.711 15.1126 140.711 14.1406H138.711C138.711 14.778 138.536 14.9433 138.464 14.9932L139.599 16.6396ZM140.711 14.1406C140.711 13.3345 140.424 12.6014 139.789 12.0716L138.508 13.6081C138.623 13.7033 138.711 13.8373 138.711 14.1406H140.711ZM139.789 12.0716C139.144 11.5347 138.25 11.3711 137.332 11.3711V13.3711C138.086 13.3711 138.403 13.52 138.508 13.6081L139.789 12.0716ZM163.582 21.0195L162.623 20.7366L162.622 20.7411L163.582 21.0195ZM159.516 25.6133L159.881 26.5441L159.887 26.5418L159.516 25.6133ZM151.992 25.6133L151.618 26.5408L151.627 26.5441L151.992 25.6133ZM149.402 23.8203L148.648 24.4767L148.651 24.4804L149.402 23.8203ZM148.277 12.7461L147.365 12.336L147.364 12.3384L148.277 12.7461ZM151.02 9.6875L151.523 10.5517L151.527 10.5493L151.02 9.6875ZM160.512 9.6875L160 10.5465L160.002 10.5479L160.512 9.6875ZM157.758 21.7812L157.141 20.9945L157.135 20.9992L157.758 21.7812ZM158.848 20.0703L157.891 19.7783L157.888 19.7876L158.848 20.0703ZM153.727 13.0039L153.108 12.2184L153.102 12.223L153.727 13.0039ZM152.613 14.7383L151.659 14.44L151.656 14.4491L152.613 14.7383ZM163.062 17.4102C163.062 18.6502 162.912 19.7563 162.623 20.7366L164.541 21.3024C164.893 20.1109 165.062 18.8107 165.062 17.4102H163.062ZM162.622 20.7411C162.345 21.6941 161.918 22.4933 161.347 23.1566L162.864 24.4606C163.637 23.5613 164.194 22.5012 164.542 21.2979L162.622 20.7411ZM161.347 23.1566C160.791 23.8038 160.065 24.3164 159.144 24.6848L159.887 26.5418C161.075 26.0664 162.077 25.3759 162.864 24.4606L161.347 23.1566ZM159.15 24.6824C158.241 25.0395 157.109 25.2344 155.73 25.2344V27.2344C157.289 27.2344 158.681 27.0152 159.881 26.5441L159.15 24.6824ZM155.73 25.2344C154.386 25.2344 153.269 25.0403 152.358 24.6824L151.627 26.5441C152.824 27.0143 154.2 27.2344 155.73 27.2344V25.2344ZM152.366 24.6858C151.45 24.3166 150.72 23.8053 150.154 23.1602L148.651 24.4804C149.444 25.3822 150.441 26.0662 151.618 26.5408L152.366 24.6858ZM150.157 23.1639C149.578 22.4992 149.139 21.6939 148.848 20.7303L146.933 21.3088C147.298 22.517 147.867 23.5789 148.648 24.4767L150.157 23.1639ZM148.848 20.7303C148.553 19.7531 148.398 18.6416 148.398 17.3867H146.398C146.398 18.8037 146.572 20.1141 146.933 21.3088L148.848 20.7303ZM148.398 17.3867C148.398 15.7133 148.674 14.3111 149.19 13.1537L147.364 12.3384C146.709 13.806 146.398 15.4977 146.398 17.3867H148.398ZM149.189 13.1562C149.699 12.0235 150.471 11.1639 151.523 10.5517L150.516 8.82332C149.099 9.64857 148.043 10.8281 147.365 12.336L149.189 13.1562ZM151.527 10.5493C152.564 9.93904 153.952 9.59766 155.754 9.59766V7.59766C153.713 7.59766 151.944 7.98283 150.512 8.82571L151.527 10.5493ZM155.754 9.59766C157.592 9.59766 158.983 9.94063 160 10.5464L161.024 8.82855C159.602 7.98124 157.822 7.59766 155.754 7.59766V9.59766ZM160.002 10.5479C161.045 11.1658 161.802 12.026 162.289 13.1544L164.125 12.3613C163.472 10.849 162.431 9.66232 161.021 8.82712L160.002 10.5479ZM162.289 13.1544C162.794 14.3234 163.062 15.7337 163.062 17.4102H165.062C165.062 15.5241 164.761 13.8329 164.125 12.3613L162.289 13.1544ZM151.273 17.4102C151.273 18.5125 151.398 19.5061 151.671 20.3714L153.579 19.7692C153.383 19.1502 153.273 18.3703 153.273 17.4102H151.273ZM151.671 20.3714C151.954 21.2655 152.425 22.0216 153.121 22.568L154.356 20.9945C154.036 20.7441 153.765 20.3595 153.579 19.7692L151.671 20.3714ZM153.121 22.568C153.848 23.1383 154.748 23.3789 155.73 23.3789V21.3789C155.072 21.3789 154.644 21.2211 154.356 20.9945L153.121 22.568ZM155.73 23.3789C156.733 23.3789 157.653 23.1435 158.381 22.5633L157.135 20.9992C156.863 21.2159 156.431 21.3789 155.73 21.3789V23.3789ZM158.375 22.568C159.077 22.0173 159.541 21.2541 159.807 20.353L157.888 19.7876C157.717 20.3709 157.454 20.7483 157.141 20.9945L158.375 22.568ZM159.804 20.3623C160.067 19.5002 160.188 18.5099 160.188 17.4102H158.188C158.188 18.3729 158.081 19.156 157.891 19.7783L159.804 20.3623ZM160.188 17.4102C160.188 15.7685 159.917 14.3511 159.281 13.2444L157.547 14.24C157.943 14.9301 158.188 15.9581 158.188 17.4102H160.188ZM159.281 13.2444C158.547 11.9642 157.28 11.3945 155.754 11.3945V13.3945C156.744 13.3945 157.25 13.7233 157.547 14.24L159.281 13.2444ZM155.754 11.3945C154.756 11.3945 153.843 11.639 153.108 12.2184L154.345 13.7894C154.641 13.5563 155.08 13.3945 155.754 13.3945V11.3945ZM153.102 12.223C152.409 12.7776 151.94 13.54 151.659 14.44L153.568 15.0366C153.755 14.4365 154.029 14.0427 154.351 13.7848L153.102 12.223ZM151.656 14.4491C151.394 15.3171 151.273 16.31 151.273 17.4102H153.273C153.273 16.4478 153.38 15.6594 153.571 15.0275L151.656 14.4491ZM177.961 10.2852L177.302 11.0371L177.304 11.0394L177.961 10.2852ZM179.25 16.5664L178.296 16.2658L178.293 16.2752L179.25 16.5664ZM178.16 18.4883L177.418 17.8182L177.413 17.8239L178.16 18.4883ZM176.156 19.8242L175.791 18.8934L175.788 18.8945L176.156 19.8242ZM171.785 20.3164V19.3164H170.785V20.3164H171.785ZM171.785 26V27H172.785V26H171.785ZM167.156 26H166.156V27H167.156V26ZM167.156 8.86719V7.86719H166.156V8.86719H167.156ZM171.785 12.6055V11.6055H170.785V12.6055H171.785ZM171.785 16.543H170.785V17.543H171.785V16.543ZM173.812 16.3438L174.173 17.2765L174.182 17.273L174.191 17.2693L173.812 16.3438ZM174.633 15.6758L173.804 15.1163L173.801 15.1211L174.633 15.6758ZM174.469 13.1211L173.737 13.8029L173.745 13.8112L174.469 13.1211ZM173.086 9.86719C175.136 9.86719 176.48 10.3164 177.302 11.0371L178.62 9.53325C177.286 8.36326 175.38 7.86719 173.086 7.86719V9.86719ZM177.304 11.0394C178.127 11.7552 178.59 12.7971 178.59 14.3164H180.59C180.59 12.3513 179.967 10.7057 178.618 9.5309L177.304 11.0394ZM178.59 14.3164C178.59 14.9994 178.491 15.6478 178.296 16.2658L180.204 16.867C180.462 16.0475 180.59 15.1959 180.59 14.3164H178.59ZM178.293 16.2752C178.118 16.8522 177.828 17.3637 177.418 17.8182L178.902 19.1584C179.508 18.4878 179.945 17.7181 180.207 16.8576L178.293 16.2752ZM177.413 17.8239C177.036 18.2481 176.508 18.6117 175.791 18.8934L176.522 20.7551C177.476 20.3805 178.285 19.8535 178.908 19.1526L177.413 17.8239ZM175.788 18.8945C175.112 19.1625 174.222 19.3164 173.086 19.3164V21.3164C174.387 21.3164 175.545 21.1422 176.525 20.7539L175.788 18.8945ZM173.086 19.3164H171.785V21.3164H173.086V19.3164ZM170.785 20.3164V26H172.785V20.3164H170.785ZM171.785 25H167.156V27H171.785V25ZM168.156 26V8.86719H166.156V26H168.156ZM167.156 9.86719H173.086V7.86719H167.156V9.86719ZM172.98 11.6055H171.785V13.6055H172.98V11.6055ZM170.785 12.6055V16.543H172.785V12.6055H170.785ZM171.785 17.543H172.699V15.543H171.785V17.543ZM172.699 17.543C173.211 17.543 173.705 17.4573 174.173 17.2765L173.452 15.411C173.232 15.4959 172.984 15.543 172.699 15.543V17.543ZM174.191 17.2693C174.717 17.0542 175.149 16.7038 175.465 16.2305L173.801 15.1211C173.71 15.2572 173.596 15.352 173.434 15.4182L174.191 17.2693ZM175.462 16.2353C175.818 15.7069 175.949 15.0773 175.949 14.4336H173.949C173.949 14.8211 173.869 15.0196 173.804 15.1163L175.462 16.2353ZM175.949 14.4336C175.949 13.6821 175.719 12.9828 175.192 12.431L173.745 13.8112C173.859 13.9312 173.949 14.107 173.949 14.4336H175.949ZM175.2 12.4394C174.622 11.8182 173.808 11.6055 172.98 11.6055V13.6055C173.496 13.6055 173.675 13.7365 173.737 13.8028L175.2 12.4394ZM199.055 23.4453L199.925 23.9379L199.927 23.9344L199.055 23.4453ZM196.863 25.4609L196.402 24.5736L196.399 24.5751L196.863 25.4609ZM190.98 26.1289L190.861 27.1218L190.863 27.122L190.98 26.1289ZM189.34 25.7891L189.032 26.7407L189.046 26.7448L189.34 25.7891ZM187.758 25.1562H186.758V25.7904L187.331 26.0608L187.758 25.1562ZM187.758 21.0312L188.208 20.1383L186.758 19.4071V21.0312H187.758ZM190.57 22.1094L190.315 23.0762L190.322 23.0781L190.57 22.1094ZM194.262 22.3086L193.916 21.3702L193.908 21.3733L194.262 22.3086ZM194.918 21.8633L195.718 22.4633L195.724 22.4555L195.73 22.4476L194.918 21.8633ZM194.812 20.4453L194.092 21.139L194.105 21.1525L194.119 21.1656L194.812 20.4453ZM192.035 18.9453L191.61 19.8507L191.623 19.8563L192.035 18.9453ZM190.312 18.0312L189.788 18.8829L189.794 18.8864L190.312 18.0312ZM189 16.9648L188.251 17.6274L188.258 17.635L188.265 17.6425L189 16.9648ZM188.684 10.8711L187.876 10.2819L187.874 10.2834L188.684 10.8711ZM190.957 9.18359L190.599 8.25005L190.596 8.25103L190.957 9.18359ZM197.344 8.99609L197.073 9.95888L197.076 9.95949L197.344 8.99609ZM199.758 9.85156L200.687 10.2203L201.04 9.33228L200.169 8.93983L199.758 9.85156ZM198.34 13.4258L197.924 14.3352L198.881 14.7731L199.269 13.7945L198.34 13.4258ZM196.172 12.6289L195.897 13.5905L195.907 13.5932L196.172 12.6289ZM193.207 12.4766L193.558 13.4129L193.566 13.41L193.574 13.407L193.207 12.4766ZM192.645 12.8633L191.849 12.2572L191.84 12.2695L191.831 12.282L192.645 12.8633ZM192.773 14.1406L192.053 14.8343L192.06 14.8411L192.066 14.8477L192.773 14.1406ZM193.816 14.832L193.358 15.7207L193.366 15.7251L193.375 15.7293L193.816 14.832ZM195.82 15.7812L195.4 16.6888L195.411 16.6936L195.82 15.7812ZM197.953 17L197.355 17.8013L197.362 17.8064L197.953 17ZM199.289 18.5586L198.395 19.0058L198.398 19.0127L198.402 19.0196L199.289 18.5586ZM198.758 20.7969C198.758 21.5498 198.57 22.2649 198.182 22.9562L199.927 23.9344C200.477 22.9539 200.758 21.9033 200.758 20.7969H198.758ZM198.184 22.9527C197.827 23.5847 197.253 24.1313 196.402 24.5736L197.324 26.3483C198.458 25.7593 199.345 24.9621 199.925 23.9379L198.184 22.9527ZM196.399 24.5751C195.604 24.9915 194.506 25.2344 193.043 25.2344V27.2344C194.705 27.2344 196.154 26.9616 197.327 26.3468L196.399 24.5751ZM193.043 25.2344C192.29 25.2344 191.643 25.2004 191.098 25.1358L190.863 27.122C191.505 27.1981 192.234 27.2344 193.043 27.2344V25.2344ZM191.1 25.136C190.567 25.0721 190.079 24.9702 189.634 24.8333L189.046 26.7448C189.617 26.9205 190.223 27.0451 190.861 27.1218L191.1 25.136ZM189.647 24.8375C189.185 24.6881 188.697 24.4937 188.184 24.2517L187.331 26.0608C187.912 26.3344 188.479 26.5619 189.032 26.7406L189.647 24.8375ZM188.758 25.1562V21.0312H186.758V25.1562H188.758ZM187.308 21.9242C188.295 22.4222 189.298 22.8072 190.315 23.0761L190.826 21.1426C189.952 20.9115 189.08 20.5778 188.208 20.1383L187.308 21.9242ZM190.322 23.0781C191.328 23.3357 192.268 23.4727 193.137 23.4727V21.4727C192.474 21.4727 191.704 21.3675 190.818 21.1407L190.322 23.0781ZM193.137 23.4727C193.665 23.4727 194.172 23.4116 194.616 23.2439L193.908 21.3733C193.773 21.4243 193.53 21.4727 193.137 21.4727V23.4727ZM194.607 23.2469C195.024 23.0936 195.428 22.8502 195.718 22.4633L194.118 21.2633C194.127 21.2513 194.094 21.3048 193.916 21.3703L194.607 23.2469ZM195.73 22.4476C195.998 22.0752 196.129 21.6464 196.129 21.1953H194.129C194.129 21.2443 194.12 21.2608 194.106 21.279L195.73 22.4476ZM196.129 21.1953C196.129 20.6309 195.916 20.1195 195.506 19.725L194.119 21.1656C194.128 21.174 194.131 21.1786 194.131 21.179C194.131 21.1791 194.13 21.1772 194.128 21.1739C194.127 21.1705 194.127 21.169 194.127 21.1708C194.128 21.1728 194.129 21.1805 194.129 21.1953H196.129ZM195.533 19.7517C195.213 19.42 194.767 19.1406 194.275 18.8946L193.381 20.6835C193.795 20.8907 194.005 21.0488 194.092 21.139L195.533 19.7517ZM194.275 18.8946C193.806 18.6599 193.195 18.3728 192.448 18.0343L191.623 19.8563C192.359 20.1897 192.944 20.4651 193.381 20.6835L194.275 18.8946ZM192.46 18.04C191.854 17.7558 191.312 17.4676 190.831 17.1761L189.794 18.8864C190.344 19.2199 190.95 19.541 191.61 19.8506L192.46 18.04ZM190.837 17.1796C190.399 16.9104 190.035 16.6118 189.735 16.2872L188.265 17.6425C188.7 18.1147 189.21 18.5271 189.788 18.8829L190.837 17.1796ZM189.749 16.3023C189.478 15.9956 189.263 15.6337 189.108 15.2062L187.228 15.8875C187.464 16.5381 187.804 17.1216 188.251 17.6274L189.749 16.3023ZM189.108 15.2062C188.962 14.8022 188.875 14.286 188.875 13.6367H186.875C186.875 14.4562 186.984 15.2134 187.228 15.8875L189.108 15.2062ZM188.875 13.6367C188.875 12.7028 189.101 11.998 189.493 11.4588L187.874 10.2834C187.188 11.2285 186.875 12.3675 186.875 13.6367H188.875ZM189.492 11.4603C189.912 10.8832 190.506 10.4304 191.318 10.1162L190.596 8.25103C189.47 8.68674 188.549 9.35894 187.876 10.2819L189.492 11.4603ZM191.316 10.1171C192.156 9.79447 193.155 9.62109 194.332 9.62109V7.62109C192.962 7.62109 191.711 7.82272 190.599 8.25006L191.316 10.1171ZM194.332 9.62109C195.376 9.62109 196.287 9.73806 197.073 9.95888L197.614 8.03331C196.619 7.75412 195.522 7.62109 194.332 7.62109V9.62109ZM197.076 9.95949C197.934 10.1985 198.69 10.4674 199.347 10.7633L200.169 8.93983C199.404 8.59514 198.55 8.29373 197.612 8.0327L197.076 9.95949ZM198.828 9.4828L197.41 13.057L199.269 13.7945L200.687 10.2203L198.828 9.4828ZM198.756 12.5164C197.977 12.1602 197.204 11.8754 196.437 11.6646L195.907 13.5932C196.562 13.773 197.234 14.0195 197.924 14.3352L198.756 12.5164ZM196.447 11.6674C195.665 11.444 194.911 11.3242 194.191 11.3242V13.3242C194.691 13.3242 195.257 13.4076 195.897 13.5904L196.447 11.6674ZM194.191 11.3242C193.718 11.3242 193.254 11.3832 192.84 11.5462L193.574 13.407C193.675 13.3668 193.868 13.3242 194.191 13.3242V11.3242ZM192.856 11.5402C192.481 11.6809 192.117 11.9053 191.849 12.2572L193.44 13.4693C193.422 13.4931 193.433 13.4597 193.558 13.4129L192.856 11.5402ZM191.831 12.282C191.587 12.6239 191.469 13.0167 191.469 13.4258H193.469C193.469 13.4194 193.469 13.4169 193.469 13.4175C193.469 13.4181 193.469 13.4209 193.467 13.4252C193.466 13.4296 193.464 13.4339 193.462 13.4379C193.46 13.4419 193.459 13.4441 193.458 13.4445L191.831 12.282ZM191.469 13.4258C191.469 13.9776 191.691 14.4578 192.053 14.8343L193.494 13.447C193.479 13.432 193.471 13.4215 193.468 13.416C193.464 13.4106 193.464 13.4092 193.465 13.4116C193.466 13.4142 193.467 13.418 193.468 13.4223C193.469 13.4265 193.469 13.4281 193.469 13.4258H191.469ZM192.066 14.8477C192.387 15.1687 192.844 15.4556 193.358 15.7207L194.275 13.9434C193.82 13.7084 193.581 13.5344 193.481 13.4335L192.066 14.8477ZM193.375 15.7293C193.877 15.9765 194.553 16.2967 195.4 16.6887L196.24 14.8738C195.4 14.4845 194.74 14.1719 194.258 13.9348L193.375 15.7293ZM195.411 16.6936C196.196 17.0458 196.84 17.417 197.355 17.8013L198.551 16.1987C197.894 15.708 197.116 15.2667 196.23 14.8689L195.411 16.6936ZM197.362 17.8064C197.828 18.1485 198.166 18.5479 198.395 19.0058L200.183 18.1114C199.803 17.3505 199.25 16.7108 198.544 16.1936L197.362 17.8064ZM198.402 19.0196C198.621 19.4412 198.758 20.0182 198.758 20.7969H200.758C200.758 19.7943 200.582 18.8792 200.176 18.0976L198.402 19.0196ZM203.051 26H202.051V27H203.051V26ZM203.051 20.3633H204.051V18.6589L202.563 19.4903L203.051 20.3633ZM201.855 21.0312L200.988 21.5281L201.479 22.387L202.343 21.9042L201.855 21.0312ZM200.191 18.125L199.681 17.2653L198.835 17.768L199.324 18.6219L200.191 18.125ZM203.051 16.4258L203.562 17.2854L204.051 16.9948V16.4258H203.051ZM203.051 8.86719V7.86719H202.051V8.86719H203.051ZM207.68 8.86719H208.68V7.86719H207.68V8.86719ZM207.68 13.5664H206.68V15.3643L208.207 14.416L207.68 13.5664ZM210.152 12.0312L211.007 11.5126L210.483 10.6487L209.625 11.1817L210.152 12.0312ZM211.887 14.8906L212.414 15.7401L213.255 15.218L212.742 14.372L211.887 14.8906ZM207.68 17.5039L207.152 16.6544L206.68 16.9479V17.5039H207.68ZM207.68 22.2617H206.68V23.2617H207.68V22.2617ZM214.277 22.2617H215.277V21.2617H214.277V22.2617ZM214.277 26V27H215.277V26H214.277ZM204.051 26V20.3633H202.051V26H204.051ZM202.563 19.4903L201.368 20.1583L202.343 21.9042L203.539 21.2362L202.563 19.4903ZM202.723 20.5344L201.059 17.6281L199.324 18.6219L200.988 21.5281L202.723 20.5344ZM200.702 18.9847L203.562 17.2854L202.54 15.5661L199.681 17.2653L200.702 18.9847ZM204.051 16.4258V8.86719H202.051V16.4258H204.051ZM203.051 9.86719H207.68V7.86719H203.051V9.86719ZM206.68 8.86719V13.5664H208.68V8.86719H206.68ZM208.207 14.416L210.68 12.8808L209.625 11.1817L207.152 12.7168L208.207 14.416ZM209.297 12.5499L211.032 15.4092L212.742 14.372L211.007 11.5126L209.297 12.5499ZM211.359 14.0412L207.152 16.6544L208.207 18.3534L212.414 15.7401L211.359 14.0412ZM206.68 17.5039V22.2617H208.68V17.5039H206.68ZM207.68 23.2617H214.277V21.2617H207.68V23.2617ZM213.277 22.2617V26H215.277V22.2617H213.277ZM214.277 25H203.051V27H214.277V25ZM232.582 21.0195L231.623 20.7366L231.622 20.7411L232.582 21.0195ZM228.516 25.6133L228.881 26.5441L228.887 26.5418L228.516 25.6133ZM220.992 25.6133L220.618 26.5408L220.627 26.5441L220.992 25.6133ZM218.402 23.8203L217.648 24.4767L217.651 24.4804L218.402 23.8203ZM217.277 12.7461L216.365 12.336L216.364 12.3384L217.277 12.7461ZM220.02 9.6875L220.523 10.5517L220.527 10.5493L220.02 9.6875ZM229.512 9.6875L229 10.5465L229.002 10.5479L229.512 9.6875ZM226.758 21.7812L226.141 20.9945L226.135 20.9992L226.758 21.7812ZM227.848 20.0703L226.891 19.7783L226.888 19.7876L227.848 20.0703ZM222.727 13.0039L222.108 12.2184L222.102 12.223L222.727 13.0039ZM221.613 14.7383L220.659 14.44L220.656 14.4491L221.613 14.7383ZM230.461 3.74609H231.461V2.74609H230.461V3.74609ZM230.461 3.99219L231.088 4.77094L231.461 4.47073V3.99219H230.461ZM229.383 4.82422L229.974 5.63113L229.983 5.62422L229.383 4.82422ZM227.988 5.83203L228.567 6.64754L228.57 6.64576L227.988 5.83203ZM226.57 6.81641L226.009 5.98867L226.003 5.99319L226.57 6.81641ZM225.398 7.58984V8.58984H225.683L225.925 8.44011L225.398 7.58984ZM222.352 7.58984H221.352V8.58984H222.352V7.58984ZM222.352 7.25L221.616 6.57252L221.352 6.85965V7.25H222.352ZM223.336 6.19531L224.064 6.88114L224.07 6.87417L223.336 6.19531ZM225.445 3.74609V2.74609H224.932L224.633 3.16319L225.445 3.74609ZM232.062 17.4102C232.062 18.6502 231.912 19.7563 231.623 20.7366L233.541 21.3024C233.893 20.1109 234.062 18.8107 234.062 17.4102H232.062ZM231.622 20.7411C231.345 21.6941 230.918 22.4933 230.347 23.1566L231.864 24.4606C232.637 23.5613 233.194 22.5012 233.542 21.2979L231.622 20.7411ZM230.347 23.1566C229.791 23.8038 229.065 24.3164 228.144 24.6848L228.887 26.5418C230.075 26.0664 231.077 25.3759 231.864 24.4606L230.347 23.1566ZM228.15 24.6824C227.241 25.0395 226.109 25.2344 224.73 25.2344V27.2344C226.289 27.2344 227.681 27.0152 228.881 26.5441L228.15 24.6824ZM224.73 25.2344C223.386 25.2344 222.269 25.0403 221.358 24.6824L220.627 26.5441C221.824 27.0143 223.2 27.2344 224.73 27.2344V25.2344ZM221.366 24.6858C220.45 24.3166 219.72 23.8053 219.154 23.1602L217.651 24.4804C218.444 25.3822 219.441 26.0662 220.618 26.5408L221.366 24.6858ZM219.157 23.1639C218.578 22.4992 218.139 21.6939 217.848 20.7303L215.933 21.3088C216.298 22.517 216.867 23.5789 217.648 24.4767L219.157 23.1639ZM217.848 20.7303C217.553 19.7531 217.398 18.6416 217.398 17.3867H215.398C215.398 18.8037 215.572 20.1141 215.933 21.3088L217.848 20.7303ZM217.398 17.3867C217.398 15.7133 217.674 14.3111 218.19 13.1537L216.364 12.3384C215.709 13.806 215.398 15.4977 215.398 17.3867H217.398ZM218.189 13.1562C218.699 12.0235 219.471 11.1639 220.523 10.5517L219.516 8.82332C218.099 9.64857 217.043 10.8281 216.365 12.336L218.189 13.1562ZM220.527 10.5493C221.564 9.93904 222.952 9.59766 224.754 9.59766V7.59766C222.713 7.59766 220.944 7.98283 219.512 8.82571L220.527 10.5493ZM224.754 9.59766C226.592 9.59766 227.983 9.94063 229 10.5464L230.024 8.82855C228.602 7.98124 226.822 7.59766 224.754 7.59766V9.59766ZM229.002 10.5479C230.045 11.1658 230.802 12.026 231.289 13.1544L233.125 12.3613C232.472 10.849 231.431 9.66232 230.021 8.82712L229.002 10.5479ZM231.289 13.1544C231.794 14.3234 232.062 15.7337 232.062 17.4102H234.062C234.062 15.5241 233.761 13.8329 233.125 12.3613L231.289 13.1544ZM220.273 17.4102C220.273 18.5125 220.398 19.5061 220.671 20.3714L222.579 19.7692C222.383 19.1502 222.273 18.3703 222.273 17.4102H220.273ZM220.671 20.3714C220.954 21.2655 221.425 22.0216 222.121 22.568L223.356 20.9945C223.036 20.7441 222.765 20.3595 222.579 19.7692L220.671 20.3714ZM222.121 22.568C222.848 23.1383 223.748 23.3789 224.73 23.3789V21.3789C224.072 21.3789 223.644 21.2211 223.356 20.9945L222.121 22.568ZM224.73 23.3789C225.733 23.3789 226.653 23.1435 227.381 22.5633L226.135 20.9992C225.863 21.2159 225.431 21.3789 224.73 21.3789V23.3789ZM227.375 22.568C228.077 22.0173 228.541 21.2541 228.807 20.353L226.888 19.7876C226.717 20.3709 226.454 20.7483 226.141 20.9945L227.375 22.568ZM228.804 20.3623C229.067 19.5002 229.188 18.5099 229.188 17.4102H227.188C227.188 18.3729 227.081 19.156 226.891 19.7783L228.804 20.3623ZM229.188 17.4102C229.188 15.7685 228.917 14.3511 228.281 13.2444L226.547 14.24C226.943 14.9301 227.188 15.9581 227.188 17.4102H229.188ZM228.281 13.2444C227.547 11.9642 226.28 11.3945 224.754 11.3945V13.3945C225.744 13.3945 226.25 13.7233 226.547 14.24L228.281 13.2444ZM224.754 11.3945C223.756 11.3945 222.843 11.639 222.108 12.2184L223.345 13.7894C223.641 13.5563 224.08 13.3945 224.754 13.3945V11.3945ZM222.102 12.223C221.409 12.7776 220.94 13.54 220.659 14.44L222.568 15.0366C222.755 14.4365 223.029 14.0427 223.351 13.7848L222.102 12.223ZM220.656 14.4491C220.394 15.3171 220.273 16.31 220.273 17.4102H222.273C222.273 16.4478 222.38 15.6594 222.571 15.0275L220.656 14.4491ZM229.461 3.74609V3.99219H231.461V3.74609H229.461ZM229.834 3.21343C229.565 3.4301 229.215 3.69989 228.783 4.02422L229.983 5.62422C230.425 5.29229 230.795 5.0074 231.088 4.77094L229.834 3.21343ZM228.792 4.01736C228.358 4.33511 227.896 4.66875 227.407 5.0183L228.57 6.64576C229.065 6.29219 229.533 5.95395 229.974 5.63108L228.792 4.01736ZM227.41 5.01652C226.931 5.35641 226.464 5.68046 226.009 5.9887L227.131 7.64411C227.599 7.32736 228.077 6.99515 228.567 6.64754L227.41 5.01652ZM226.003 5.99319C225.558 6.29992 225.182 6.54791 224.872 6.73958L225.925 8.44011C226.271 8.22553 226.677 7.9579 227.138 7.63962L226.003 5.99319ZM225.398 6.58984H222.352V8.58984H225.398V6.58984ZM223.352 7.58984V7.25H221.352V7.58984H223.352ZM223.087 7.92748C223.357 7.63422 223.683 7.28556 224.064 6.88111L222.608 5.50951C222.224 5.91756 221.893 6.27203 221.616 6.57252L223.087 7.92748ZM224.07 6.87417C224.457 6.4555 224.844 6.02908 225.231 5.59489L223.738 4.26448C223.359 4.68967 222.98 5.107 222.602 5.51646L224.07 6.87417ZM225.231 5.59489C225.631 5.14629 225.975 4.72395 226.258 4.329L224.633 3.16319C224.4 3.48699 224.104 3.85371 223.738 4.26448L225.231 5.59489ZM225.445 4.74609H230.461V2.74609H225.445V4.74609ZM258.879 8.86719L259.85 9.10628L260.155 7.86719H258.879V8.86719ZM254.66 26V27H255.444L255.631 26.2391L254.66 26ZM249.188 26L248.211 26.2147L248.383 27H249.188V26ZM247.547 18.5352L248.524 18.3205L248.523 18.3182L247.547 18.5352ZM247.395 17.8203L246.411 18.0032L246.413 18.0142L246.416 18.0252L247.395 17.8203ZM247.172 16.6719L246.188 16.8508L246.19 16.8594L246.191 16.868L247.172 16.6719ZM246.949 15.4062L245.96 15.5528L245.962 15.5632L245.963 15.5737L246.949 15.4062ZM246.809 14.3398L247.803 14.2324H245.814L246.809 14.3398ZM246.656 15.4062L247.642 15.5737L247.643 15.5706L246.656 15.4062ZM246.422 16.6719L245.441 16.4758L245.44 16.4844L245.438 16.493L246.422 16.6719ZM246.188 17.8203L245.213 17.5938L245.211 17.6046L245.209 17.6154L246.188 17.8203ZM246.035 18.5352L245.059 18.3182L245.059 18.319L246.035 18.5352ZM244.383 26V27H245.186L245.359 26.2161L244.383 26ZM238.91 26L237.939 26.2403L238.128 27H238.91V26ZM234.668 8.86719V7.86719H233.39L233.697 9.10754L234.668 8.86719ZM239.133 8.86719L240.11 8.6552L239.939 7.86719H239.133V8.86719ZM240.996 17.457L240.019 17.669L240.02 17.674L240.996 17.457ZM241.184 18.3594L240.203 18.5555L240.205 18.567L240.208 18.5784L241.184 18.3594ZM241.441 19.625L240.458 19.8083L240.46 19.818L240.462 19.8276L241.441 19.625ZM241.863 21.9922L240.869 22.1026L242.855 22.1202L241.863 21.9922ZM242.109 20.3398L241.125 20.1653L241.123 20.1775L242.109 20.3398ZM242.461 18.4648L241.482 18.2618L241.48 18.2711L242.461 18.4648ZM243.141 15.3477L244.111 15.5902L244.113 15.5825L244.114 15.5748L243.141 15.3477ZM244.652 8.86719V7.86719H243.859L243.678 8.64001L244.652 8.86719ZM248.941 8.86719L249.917 8.64671L249.741 7.86719H248.941V8.86719ZM250.406 15.3477L249.431 15.5681L249.432 15.5742L250.406 15.3477ZM250.699 16.6836L249.721 16.8903L249.723 16.8984L249.724 16.9064L250.699 16.6836ZM251.074 18.4648L250.093 18.6564L250.095 18.6678L251.074 18.4648ZM251.438 20.3633L250.452 20.5357L250.453 20.5378L251.438 20.3633ZM251.684 21.9922L250.69 22.1081L252.676 22.1113L251.684 21.9922ZM251.918 20.5156L252.901 20.6968L252.902 20.6945L251.918 20.5156ZM252.246 18.7695L251.267 18.5682L251.264 18.5787L252.246 18.7695ZM252.516 17.4805L251.539 17.2652L251.538 17.2691L252.516 17.4805ZM254.414 8.86719V7.86719H253.61L253.438 8.65195L254.414 8.86719ZM257.908 8.62809L253.689 25.7609L255.631 26.2391L259.85 9.10628L257.908 8.62809ZM254.66 25H249.188V27H254.66V25ZM250.164 25.7853L248.524 18.3205L246.57 18.7498L248.211 26.2147L250.164 25.7853ZM248.523 18.3182C248.493 18.1842 248.444 17.9513 248.373 17.6154L246.416 18.0252C246.486 18.3612 246.538 18.6048 246.571 18.7521L248.523 18.3182ZM248.378 17.6374C248.314 17.296 248.239 16.9087 248.152 16.4758L246.191 16.868C246.277 17.2944 246.35 17.6727 246.411 18.0032L248.378 17.6374ZM248.156 16.493C248.078 16.067 248.005 15.6489 247.935 15.2388L245.963 15.5737C246.034 15.9917 246.109 16.4174 246.188 16.8508L248.156 16.493ZM247.938 15.2597C247.877 14.8454 247.832 14.5039 247.803 14.2324L245.814 14.4473C245.848 14.7539 245.896 15.1233 245.96 15.5528L247.938 15.2597ZM245.814 14.2324C245.786 14.4958 245.738 14.831 245.67 15.2419L247.643 15.5706C247.715 15.1378 247.769 14.762 247.803 14.4473L245.814 14.2324ZM245.67 15.2388C245.602 15.6429 245.525 16.0552 245.441 16.4758L247.402 16.868C247.49 16.4292 247.57 15.9977 247.642 15.5737L245.67 15.2388ZM245.438 16.493C245.362 16.9107 245.287 17.2771 245.213 17.5938L247.162 18.0468C247.244 17.6916 247.325 17.2924 247.406 16.8508L245.438 16.493ZM245.209 17.6154C245.138 17.9513 245.089 18.1842 245.059 18.3182L247.011 18.7521C247.044 18.6048 247.096 18.3612 247.166 18.0252L245.209 17.6154ZM245.059 18.319L243.406 25.7839L245.359 26.2161L247.012 18.7513L245.059 18.319ZM244.383 25H238.91V27H244.383V25ZM239.881 25.7597L235.639 8.62684L233.697 9.10754L237.939 26.2403L239.881 25.7597ZM234.668 9.86719H239.133V7.86719H234.668V9.86719ZM238.156 9.07917L240.019 17.669L241.973 17.245L240.11 8.6552L238.156 9.07917ZM240.02 17.674C240.064 17.8745 240.125 18.1671 240.203 18.5555L242.164 18.1633C242.086 17.7704 242.021 17.4615 241.972 17.2401L240.02 17.674ZM240.208 18.5784C240.291 18.9473 240.374 19.3571 240.458 19.8083L242.424 19.4417C242.337 18.971 242.248 18.537 242.159 18.1403L240.208 18.5784ZM240.462 19.8276C240.555 20.2744 240.639 20.7051 240.716 21.1196L242.682 20.7554C242.603 20.3262 242.516 19.8818 242.421 19.4224L240.462 19.8276ZM240.716 21.1196C240.792 21.5285 240.842 21.8542 240.869 22.1026L242.857 21.8818C242.822 21.5677 242.763 21.1903 242.682 20.7554L240.716 21.1196ZM242.855 22.1202C242.916 21.6499 242.996 21.111 243.096 20.5022L241.123 20.1775C241.02 20.8031 240.936 21.3657 240.872 21.8642L242.855 22.1202ZM243.094 20.5143C243.202 19.9038 243.318 19.2852 243.442 18.6586L241.48 18.2711C241.354 18.9101 241.235 19.5415 241.125 20.1653L243.094 20.5143ZM243.44 18.6678C243.573 18.029 243.697 17.4375 243.814 16.8931L241.858 16.4741C241.74 17.0234 241.615 17.6194 241.482 18.2618L243.44 18.6678ZM243.814 16.8931C243.93 16.3518 244.029 15.9186 244.111 15.5902L242.17 15.1051C242.081 15.4642 241.977 15.9217 241.858 16.4741L243.814 16.8931ZM244.114 15.5748L245.626 9.09436L243.678 8.64001L242.167 15.1205L244.114 15.5748ZM244.652 9.86719H248.941V7.86719H244.652V9.86719ZM247.966 9.08766L249.431 15.5681L251.382 15.1272L249.917 8.64671L247.966 9.08766ZM249.432 15.5742C249.508 15.9007 249.604 16.3386 249.721 16.8903L251.678 16.4769C251.56 15.9192 251.461 15.4665 251.38 15.1211L249.432 15.5742ZM249.724 16.9064C249.847 17.4414 249.969 18.0246 250.093 18.6564L252.056 18.2733C251.929 17.6239 251.802 17.0196 251.674 16.4608L249.724 16.9064ZM250.095 18.6678C250.226 19.2986 250.345 19.9212 250.452 20.5357L252.423 20.1909C252.311 19.5554 252.188 18.9123 252.053 18.2618L250.095 18.6678ZM250.453 20.5378C250.56 21.1414 250.639 21.6641 250.69 22.1081L252.677 21.8763C252.619 21.3828 252.534 20.8195 252.422 20.1888L250.453 20.5378ZM252.676 22.1113C252.72 21.7493 252.794 21.2796 252.901 20.6968L250.935 20.3345C250.823 20.9392 250.741 21.4538 250.691 21.873L252.676 22.1113ZM252.902 20.6945C253.011 20.0967 253.119 19.5187 253.228 18.9604L251.264 18.5787C251.154 19.1454 251.044 19.7314 250.934 20.3367L252.902 20.6945ZM253.226 18.9708C253.343 18.4013 253.432 17.9757 253.493 17.6918L251.538 17.2691C251.475 17.5634 251.384 17.9971 251.267 18.5683L253.226 18.9708ZM253.492 17.6957L255.391 9.08243L253.438 8.65195L251.539 17.2652L253.492 17.6957ZM254.414 9.86719H258.879V7.86719H254.414V9.86719Z" fill="white"/>
</g>
<path d="M255.405 26.2939C255.567 26.0704 255.517 25.7578 255.294 25.5955L251.653 22.9508C251.43 22.7885 251.117 22.838 250.955 23.0615C250.792 23.2849 250.842 23.5976 251.065 23.7599L254.302 26.1107L251.951 29.347C251.788 29.5704 251.838 29.8831 252.061 30.0454C252.285 30.2077 252.598 30.1581 252.76 29.9347L255.405 26.2939ZM119.752 25.7389C118.178 28.3096 117.385 30.5843 117.513 32.5537C117.644 34.5641 118.727 36.1657 120.682 37.3715C122.615 38.5636 125.418 39.3845 129.075 39.8861C132.739 40.3889 137.302 40.5763 142.784 40.4723C164.699 40.0567 201.547 34.9775 255.078 26.4938L254.922 25.5062C201.37 33.9931 164.596 39.0585 142.765 39.4725C137.31 39.5759 132.804 39.3885 129.21 38.8954C125.609 38.4012 122.966 37.6052 121.207 36.5204C119.47 35.4493 118.617 34.1141 118.511 32.4888C118.403 30.8225 119.073 28.7626 120.605 26.2611L119.752 25.7389Z" fill="#A31621"/>
<defs>
<filter id="filter0_d_64_4" x="112.355" y="3.74609" width="150.523" height="30.4883" filterUnits="userSpaceOnUse" color-interpolation-filters="sRGB">
<feFlood flood-opacity="0" result="BackgroundImageFix"/>
<feColorMatrix in="SourceAlpha" type="matrix" values="0 0 0 0 0 0 0 0 0 0 0 0 0 0 0 0 0 0 127 0" result="hardAlpha"/>
<feOffset dy="4"/>
<feGaussianBlur stdDeviation="2"/>
<feComposite in2="hardAlpha" operator="out"/>
<feColorMatrix type="matrix" values="0 0 0 0 0 0 0 0 0 0 0 0 0 0 0 0 0 0 0.25 0"/>
<feBlend mode="normal" in2="BackgroundImageFix" result="effect1_dropShadow_64_4"/>
<feBlend mode="normal" in="SourceGraphic" in2="effect1_dropShadow_64_4" result="shape"/>
</filter>
</defs>
</svg>
